<svg width="400" height="407" viewBox="0 0 400 407" fill="none" xmlns="http://www.w3.org/2000/svg">
<path d="M181.29 36.4708L187.427 26.6338L184.41 24.7654C183.98 24.49 183.634 24.1026 183.409 23.6449C183.183 23.1873 183.087 22.6767 183.13 22.1683C183.186 21.5941 183.205 21.0168 183.186 20.4401C183.179 19.9346 183.31 19.4368 183.563 18.9994C183.816 18.5619 184.183 18.2011 184.625 17.9551L187.745 16.2736L182.242 6.07217L179.122 7.74438C178.673 7.98405 178.165 8.09355 177.657 8.06054C177.149 8.02753 176.66 7.85333 176.245 7.55754C175.773 7.21959 175.284 6.90772 174.778 6.62334C174.332 6.37909 173.96 6.01787 173.703 5.57844C173.447 5.139 173.314 4.63795 173.321 4.12905L173.433 0.579116L161.868 0.224121L161.756 3.77406C161.737 4.284 161.577 4.77876 161.293 5.20283C161.01 5.62689 160.613 5.96351 160.149 6.17493C159.887 6.29638 159.635 6.41782 159.383 6.55795C159.131 6.69808 158.888 6.82887 158.645 6.97834C158.212 7.24441 157.714 7.38528 157.206 7.38528C156.698 7.38528 156.2 7.24441 155.767 6.97834L152.731 5.10995L146.631 14.947L149.648 16.8154C150.077 17.09 150.422 17.4759 150.647 17.9318C150.873 18.3876 150.97 18.8962 150.928 19.4031C150.872 19.9774 150.853 20.5547 150.872 21.1314C150.881 21.6384 150.751 22.1381 150.498 22.5774C150.244 23.0167 149.877 23.379 149.434 23.6257L146.323 25.3446L151.788 35.546L154.917 33.8738C155.366 33.636 155.871 33.5275 156.378 33.5605C156.884 33.5935 157.372 33.7666 157.785 34.0606C158.262 34.3876 158.719 34.6865 159.252 34.9948C159.703 35.2341 160.078 35.5943 160.335 36.0349C160.592 36.4754 160.722 36.979 160.709 37.4891L160.597 41.039L172.172 41.4034L172.284 37.8441C172.303 37.3366 172.463 36.8444 172.747 36.4234C173.031 36.0023 173.427 35.6692 173.891 35.4619C174.143 35.3405 174.405 35.2097 174.657 35.0695C174.909 34.9294 175.152 34.7986 175.395 34.6492C175.832 34.3855 176.332 34.2461 176.843 34.2461C177.353 34.2461 177.854 34.3855 178.291 34.6492L181.29 36.4708ZM171.546 29.1654C169.893 30.0516 168.015 30.4278 166.148 30.2463C164.281 30.0648 162.51 29.3339 161.059 28.1459C159.608 26.958 158.542 25.3663 157.995 23.5723C157.448 21.7783 157.446 19.8625 157.988 18.0671C158.531 16.2718 159.593 14.6776 161.041 13.4861C162.49 12.2946 164.259 11.5594 166.125 11.3734C167.991 11.1874 169.871 11.559 171.526 12.4412C173.181 13.3234 174.537 14.6766 175.423 16.3296C176.012 17.4267 176.38 18.6293 176.504 19.8685C176.628 21.1077 176.506 22.3593 176.146 23.5515C175.786 24.7437 175.194 25.8532 174.405 26.8165C173.616 27.7798 172.644 28.578 171.546 29.1654Z" fill="#EBEBEB"/>
<path d="M18.6092 163.269L25.6343 159.187L24.3918 157.038C24.2153 156.726 24.1288 156.372 24.142 156.014C24.1552 155.656 24.2676 155.309 24.4666 155.011C24.6814 154.674 24.8869 154.329 25.0738 153.964C25.2285 153.653 25.4669 153.391 25.7623 153.208C26.0577 153.025 26.3984 152.928 26.746 152.928H29.2683V144.809H26.746C26.3891 144.814 26.0384 144.716 25.7354 144.527C25.4324 144.338 25.1899 144.067 25.0364 143.744C24.8496 143.38 24.644 143.034 24.4292 142.698C24.2302 142.4 24.1179 142.053 24.1047 141.695C24.0915 141.337 24.1779 140.983 24.3545 140.671L25.5969 138.522L18.5718 134.468L17.4041 136.626C17.2219 136.931 16.9588 137.18 16.6439 137.345C16.3289 137.51 15.9744 137.584 15.6197 137.56C15.4236 137.56 15.218 137.56 15.0219 137.56C14.8257 137.56 14.6202 137.56 14.424 137.56C14.0694 137.583 13.7154 137.508 13.4006 137.344C13.0858 137.179 12.8226 136.93 12.6397 136.626L11.3878 134.458L4.32534 138.522L5.57716 140.68C5.7539 140.99 5.84055 141.343 5.82735 141.7C5.81414 142.056 5.70161 142.402 5.50243 142.698C5.28212 143.036 5.07944 143.385 4.8952 143.744C4.74174 144.067 4.49918 144.338 4.19621 144.527C3.89324 144.716 3.54255 144.814 3.18563 144.809H0.700672V152.928H3.18563C3.54255 152.923 3.89324 153.021 4.19621 153.21C4.49918 153.399 4.74174 153.67 4.8952 153.992C5.07944 154.351 5.28212 154.701 5.50243 155.039C5.70161 155.335 5.81414 155.681 5.82735 156.037C5.84055 156.394 5.7539 156.747 5.57716 157.057L4.32534 159.187L11.3505 163.241L12.6023 161.083C12.7836 160.777 13.0466 160.527 13.3617 160.362C13.6769 160.197 14.0318 160.123 14.3866 160.149H14.9845H15.5824C15.9372 160.123 16.2921 160.197 16.6073 160.362C16.9224 160.527 17.1854 160.777 17.3667 161.083L18.6092 163.269ZM14.9845 155.515C13.6666 155.517 12.3778 155.127 11.2818 154.395C10.1857 153.664 9.3318 152.623 8.82833 151.405C8.32487 150.187 8.19457 148.847 8.45397 147.555C8.71337 146.262 9.35078 145.077 10.2853 144.147C11.2198 143.218 12.4094 142.587 13.7029 142.335C14.9965 142.083 16.3358 142.221 17.5509 142.731C18.766 143.242 19.8021 144.101 20.5278 145.202C21.2534 146.302 21.6359 147.593 21.6266 148.91C21.6167 150.666 20.9126 152.345 19.668 153.583C18.4234 154.821 16.7396 155.515 14.9845 155.515Z" fill="#EBEBEB"/>
<path d="M230.484 45.2148L226.43 38.1896L224.281 39.4321C223.972 39.6102 223.619 39.6985 223.263 39.6869C222.906 39.6754 222.56 39.5645 222.263 39.3667C221.923 39.1444 221.571 38.9416 221.208 38.7595C220.88 38.6005 220.605 38.352 220.413 38.0428C220.221 37.7336 220.121 37.3764 220.124 37.0125V34.5276H212.015V37.0125C212.019 37.3705 211.919 37.7219 211.729 38.0249C211.538 38.328 211.265 38.57 210.941 38.7221C210.582 38.9064 210.233 39.109 209.895 39.3293C209.598 39.5271 209.252 39.638 208.895 39.6495C208.538 39.6611 208.186 39.5728 207.877 39.3947L205.728 38.1523L201.692 45.2148L203.85 46.4572C204.156 46.6409 204.406 46.9056 204.571 47.2222C204.736 47.5388 204.81 47.8948 204.785 48.2509C204.785 48.4471 204.785 48.6433 204.785 48.8488C204.785 49.0543 204.785 49.2505 204.785 49.4467C204.814 49.8007 204.741 50.1558 204.576 50.4701C204.41 50.7845 204.159 51.0452 203.85 51.2216L201.692 52.4734L205.747 59.4986L207.895 58.2561C208.207 58.0796 208.562 57.9931 208.92 58.0063C209.278 58.0195 209.625 58.1319 209.923 58.3308C210.259 58.5457 210.605 58.7512 210.969 58.9381C211.287 59.0968 211.555 59.3406 211.743 59.6424C211.931 59.9442 212.032 60.2921 212.034 60.6476V63.1326H220.124V60.6476C220.126 60.2921 220.227 59.9442 220.415 59.6424C220.603 59.3406 220.871 59.0968 221.189 58.9381C221.553 58.7512 221.899 58.5457 222.235 58.3308C222.531 58.1317 222.877 58.0191 223.234 58.0059C223.59 57.9927 223.943 58.0794 224.253 58.2561L226.411 59.4986L230.466 52.4734L228.308 51.231C228.002 51.0489 227.753 50.7857 227.588 50.4708C227.423 50.1558 227.349 49.8013 227.373 49.4467C227.373 49.2505 227.373 49.045 227.373 48.8488C227.373 48.6526 227.373 48.4471 227.373 48.2509C227.348 47.8948 227.422 47.5388 227.587 47.2222C227.752 46.9056 228.001 46.6409 228.308 46.4572L230.484 45.2148ZM222.73 48.8488C222.729 50.1621 222.337 51.4453 221.606 52.5364C220.876 53.6275 219.838 54.4773 218.624 54.9786C217.41 55.4799 216.075 55.6101 214.787 55.3528C213.499 55.0954 212.316 54.4621 211.388 53.5328C210.46 52.6035 209.829 51.42 209.573 50.1318C209.318 48.8436 209.45 47.5086 209.953 46.2955C210.456 45.0823 211.307 44.0455 212.399 43.3161C213.491 42.5866 214.775 42.1973 216.088 42.1973C217.845 42.1973 219.53 42.8932 220.775 44.1328C222.02 45.3724 222.723 47.0547 222.73 48.8114V48.8488Z" fill="#EBEBEB"/>
<path d="M385.476 270.832L373.005 271.093L366.858 271.196C364.812 271.243 362.785 271.196 360.739 271.252L361.159 270.832L361.206 281.285L360.739 280.818L373.108 280.874C377.237 280.874 381.356 280.986 385.476 281.033L385.224 281.285C385.224 279.576 385.308 277.857 385.345 276.11L385.476 270.832ZM385.476 270.832L385.616 276.007C385.616 277.745 385.719 279.51 385.738 281.285V281.566H385.476C381.356 281.566 377.237 281.715 373.108 281.725L360.739 281.781H360.272V281.313L360.328 270.86V270.439H360.739C362.831 270.439 364.915 270.439 366.998 270.486L373.22 270.589L385.476 270.832Z" fill="#EBEBEB"/>
<path d="M260.491 186.829H235.753V197.283H260.491V186.829Z" fill="#EBEBEB"/>
<path d="M246.693 173.648L234.221 173.9L228.074 174.012C226.028 174.012 223.992 174.012 221.955 174.012L222.375 173.601V184.045L221.908 183.588L234.277 183.644C238.406 183.644 242.526 183.747 246.646 183.793L246.394 184.045C246.394 182.336 246.478 180.617 246.515 178.879L246.693 173.648ZM246.693 173.648L246.823 178.814C246.87 180.561 246.935 182.327 246.954 184.092V184.344H246.693C242.573 184.391 238.453 184.494 234.324 184.494L221.955 184.55H221.488V184.073L221.544 173.629V173.199H221.992C224.076 173.199 226.168 173.199 228.252 173.246L234.473 173.358L246.693 173.648Z" fill="#EBEBEB"/>
<path d="M274.307 173.648L261.826 173.9L255.679 174.012C253.634 174.012 251.606 174.012 249.57 174.012L249.981 173.601L250.037 184.045L249.57 183.588L261.939 183.644C266.058 183.644 270.178 183.747 274.307 183.793L274.046 184.045C274.046 182.336 274.13 180.617 274.167 178.879L274.307 173.648ZM274.307 173.648L274.438 178.814C274.438 180.561 274.541 182.327 274.559 184.092V184.344H274.307C270.178 184.391 266.058 184.494 261.939 184.494L249.57 184.55H249.084V184.073L249.131 173.629V173.199H249.551C251.634 173.199 253.718 173.199 255.801 173.246L262.023 173.358L274.307 173.648Z" fill="#EBEBEB"/>
<path d="M23.6912 20.8697L36.1627 20.6175L42.3097 20.5054C44.3555 20.5054 46.3921 20.5054 48.4286 20.5054L48.0082 20.9164L47.9615 10.4628L48.4286 10.9299L36.0879 10.8271C31.9588 10.8271 27.839 10.7244 23.7192 10.6776L23.9714 10.4161C23.9714 12.135 23.8874 13.8539 23.85 15.5915L23.6912 20.8697ZM23.6912 20.8697L23.5511 15.7036C23.5511 13.9567 23.4483 12.191 23.4296 10.4161V10.1638H23.6912C27.811 10.1638 31.9308 10.0144 36.0599 10.0144L48.4286 9.94897H48.8957V10.4161L48.8397 20.8697V21.2901H48.4286C46.3454 21.2901 44.2528 21.2901 42.1695 21.234L35.9478 21.1313L23.6912 20.8697Z" fill="#EBEBEB"/>
<path d="M9.88379 34.0605H34.6212V23.6069L9.88379 23.6069V34.0605Z" fill="#EBEBEB"/>
<path d="M360.776 20.9259L373.257 20.6643L379.404 20.5615C381.45 20.5615 383.477 20.5615 385.514 20.5055L385.103 20.9259L385.056 10.4722L385.514 10.9393L373.145 10.8366C369.025 10.8366 364.905 10.7338 360.776 10.6871L361.038 10.4349C361.038 12.1444 360.954 13.8634 360.916 15.601L360.776 20.9259ZM360.776 20.9259L360.645 15.7504C360.645 14.0035 360.543 12.2379 360.524 10.4722V10.1826H360.776C364.905 10.1359 369.025 10.0332 373.145 10.0332L385.476 9.96777H385.953V10.4442L385.934 20.9259V21.3462H385.476C383.393 21.3462 381.31 21.3462 379.227 21.3462L373.005 21.2341L360.776 20.9259Z" fill="#EBEBEB"/>
<path d="M194.508 327.78H169.771V338.234H194.508V327.78Z" fill="#EBEBEB"/>
<path d="M34.6306 274.737L22.1498 275.026L16.0028 275.129C13.9569 275.176 11.9297 275.129 9.89313 275.185L10.3042 274.765L10.3509 285.218L9.89313 284.751L22.2619 284.807C26.3816 284.807 30.5014 284.92 34.6306 284.966L34.369 285.218C34.369 283.509 34.4531 281.79 34.4904 280.043L34.6306 274.737ZM34.6306 274.737L34.7614 279.912C34.7614 281.65 34.8641 283.415 34.8828 285.19V285.443H34.6306C30.5014 285.489 26.3816 285.592 22.2619 285.601L9.9305 285.658H9.45407V285.19V274.737V274.316H9.9305C12.0138 274.316 14.097 274.316 16.1803 274.372L22.402 274.475L34.6306 274.737Z" fill="#EBEBEB"/>
<path d="M180.71 314.599L168.23 314.861L162.083 314.963C160.046 315.01 158.01 314.963 155.973 315.019L156.384 314.599L156.44 325.053L155.973 324.585L168.342 324.651C172.461 324.651 176.591 324.754 180.71 324.8L180.458 325.053C180.458 323.343 180.533 321.624 180.58 319.886L180.71 314.599ZM180.71 314.599L180.841 319.774C180.888 321.521 180.944 323.278 180.963 325.053V325.305H180.71C176.591 325.351 172.461 325.445 168.342 325.454L155.973 325.51H155.506V325.043V314.59V314.169H155.926C158.01 314.169 160.102 314.169 162.176 314.216L168.398 314.319L180.71 314.599Z" fill="#EBEBEB"/>
<path d="M271.561 224.104V365.167H356.843V224.104H271.561ZM349.099 313.123H279.305V276.39H349.099V313.123ZM349.099 267.646H279.305V230.923H349.099V267.646Z" fill="#DBDBDB"/>
<path d="M395.416 224.113H356.853V365.185H395.416V224.113Z" fill="#EBEBEB"/>
<path d="M295.887 230.923H279.305V267.646H295.887V230.923Z" fill="#EBEBEB"/>
<path d="M349.342 356.563H279.511V321.063H349.342V356.563ZM279.978 356.096H348.875V321.531H279.978V356.096Z" fill="#EBEBEB"/>
<path d="M321.316 331.162H307.537V336.197H321.316V331.162Z" fill="#EBEBEB"/>
<path d="M295.887 276.4H279.305V313.123H295.887V276.4Z" fill="#EBEBEB"/>
<path d="M339.551 313.113V279.258H327.883V313.113H339.551Z" fill="#A6A6A6"/>
<path d="M339.561 307.686V300.38H327.893V307.686H339.561Z" fill="#DBDBDB"/>
<path d="M339.551 294.495V290.16H327.883V294.495H339.551Z" fill="#DBDBDB"/>
<path d="M329.154 239.312H299.661V267.646H329.154V239.312Z" fill="#EBEBEB"/>
<path d="M340.355 239.312H329.144V267.646H340.355V239.312Z" fill="#C7C7C7"/>
<path d="M299.661 253.484H329.144L306.117 254.213L299.661 253.484Z" fill="#C7C7C7"/>
<path d="M329.144 264.227H299.661L322.689 264.956L329.144 264.227Z" fill="#C7C7C7"/>
<path d="M299.661 245.562H318.336L301.735 246.16L299.661 245.562Z" fill="#C7C7C7"/>
<path d="M329.144 260.051H310.47L327.07 260.649L329.144 260.051Z" fill="#C7C7C7"/>
<path d="M306.733 242.404H327.799L324.287 242.759L306.733 242.404Z" fill="#C7C7C7"/>
<path d="M302.529 256.52H323.595L320.083 256.875L302.529 256.52Z" fill="#C7C7C7"/>
<path d="M315.477 248.262H329.144L331.592 249.215L315.477 248.262Z" fill="#EBEBEB"/>
<path d="M295.896 248.262H309.564L312.002 249.215L295.896 248.262Z" fill="#EBEBEB"/>
<path d="M313.431 260.995H299.764L297.326 261.948L313.431 260.995Z" fill="#EBEBEB"/>
<path d="M329.144 257.762H340.121L342.559 258.715L329.144 257.762Z" fill="#C7C7C7"/>
<path d="M332.975 253.484H341.485L340.355 252.699L332.975 253.484Z" fill="#C7C7C7"/>
<path d="M349.108 276.998H339.561V313.113H349.108V276.998Z" fill="#EBEBEB"/>
<path d="M344.372 284.126C343.978 284.127 343.592 284.012 343.264 283.795C342.935 283.577 342.679 283.267 342.527 282.904C342.375 282.54 342.334 282.14 342.41 281.753C342.485 281.367 342.674 281.011 342.952 280.732C343.23 280.453 343.585 280.262 343.971 280.185C344.357 280.107 344.758 280.146 345.122 280.297C345.486 280.447 345.797 280.702 346.016 281.029C346.235 281.357 346.352 281.742 346.352 282.136C346.352 282.662 346.144 283.167 345.773 283.54C345.402 283.912 344.898 284.123 344.372 284.126Z" fill="white"/>
<path d="M344.372 283.275C344.146 283.277 343.925 283.212 343.736 283.088C343.547 282.964 343.4 282.787 343.312 282.578C343.224 282.37 343.201 282.141 343.243 281.919C343.286 281.698 343.394 281.494 343.553 281.333C343.712 281.173 343.915 281.063 344.137 281.019C344.358 280.974 344.588 280.996 344.796 281.082C345.005 281.168 345.184 281.314 345.309 281.502C345.435 281.689 345.502 281.91 345.502 282.136C345.502 282.436 345.383 282.725 345.172 282.938C344.96 283.152 344.672 283.273 344.372 283.275Z" fill="#A6A6A6"/>
<path d="M349.108 307.434V298.643H339.561V307.434H349.108Z" fill="white"/>
<path d="M327.883 305.659H291.767V313.17H327.883V305.659Z" fill="#C7C7C7"/>
<path d="M320.765 309.414C320.765 309.021 320.881 308.636 321.1 308.309C321.319 307.981 321.629 307.726 321.993 307.576C322.357 307.425 322.757 307.386 323.143 307.463C323.529 307.539 323.883 307.729 324.162 308.007C324.44 308.285 324.629 308.64 324.706 309.026C324.783 309.412 324.743 309.812 324.593 310.176C324.442 310.539 324.187 310.85 323.86 311.069C323.533 311.287 323.148 311.404 322.755 311.404C322.493 311.405 322.234 311.355 321.992 311.255C321.75 311.155 321.53 311.009 321.345 310.824C321.16 310.639 321.013 310.419 320.914 310.177C320.814 309.935 320.763 309.676 320.765 309.414Z" fill="white"/>
<path d="M321.615 309.414C321.615 309.189 321.682 308.968 321.807 308.781C321.932 308.594 322.11 308.447 322.318 308.361C322.527 308.275 322.756 308.252 322.977 308.296C323.198 308.34 323.401 308.449 323.56 308.608C323.72 308.768 323.828 308.971 323.872 309.192C323.916 309.413 323.894 309.642 323.807 309.85C323.721 310.059 323.575 310.237 323.388 310.362C323.2 310.487 322.98 310.554 322.755 310.554C322.604 310.555 322.456 310.526 322.317 310.47C322.178 310.413 322.052 310.329 321.946 310.223C321.84 310.117 321.756 309.991 321.699 309.852C321.642 309.713 321.614 309.564 321.615 309.414Z" fill="#A6A6A6"/>
<path d="M297.457 313.179H306.247V305.668H297.457V313.179Z" fill="white"/>
<path d="M385.544 170.57C393.528 147.618 381.678 122.639 359.077 114.777C336.476 106.915 311.682 119.148 303.699 142.1C295.715 165.052 307.565 190.031 330.166 197.893C352.767 205.755 377.561 193.522 385.544 170.57Z" fill="#EBEBEB"/>
<path d="M376.526 167.411C382.753 149.508 373.509 130.022 355.879 123.89C338.248 117.757 318.907 127.299 312.68 145.203C306.452 163.106 315.696 182.591 333.327 188.724C350.957 194.857 370.298 185.315 376.526 167.411Z" fill="white"/>
<path d="M369.034 155.935C369.098 162.472 366.584 168.771 362.039 173.468C357.493 178.166 351.281 180.885 344.745 181.037C341.532 181.074 338.344 180.473 335.364 179.269C332.385 178.065 329.674 176.282 327.389 174.023C325.104 171.764 323.29 169.074 322.051 166.108C320.813 163.143 320.176 159.962 320.176 156.748C320.113 150.212 322.626 143.913 327.172 139.215C331.717 134.517 337.93 131.798 344.465 131.646C347.678 131.609 350.867 132.21 353.846 133.414C356.826 134.618 359.536 136.401 361.822 138.661C364.107 140.92 365.921 143.61 367.159 146.575C368.397 149.541 369.035 152.722 369.034 155.935Z" fill="#EBEBEB"/>
<path d="M359.487 156.085C359.518 160.056 357.986 163.88 355.223 166.732C352.46 169.584 348.687 171.236 344.717 171.331C342.761 171.353 340.82 170.987 339.006 170.253C337.192 169.519 335.542 168.432 334.152 167.056C332.761 165.679 331.658 164.04 330.906 162.234C330.154 160.428 329.768 158.49 329.77 156.533C329.732 152.558 331.26 148.727 334.024 145.869C336.788 143.011 340.565 141.355 344.54 141.259C346.499 141.236 348.443 141.602 350.26 142.338C352.076 143.073 353.727 144.162 355.119 145.542C356.51 146.921 357.612 148.564 358.362 150.374C359.112 152.184 359.495 154.126 359.487 156.085Z" fill="white"/>
<path d="M351.238 156.225C351.258 157.99 350.584 159.692 349.361 160.964C348.137 162.237 346.463 162.977 344.699 163.026C343.826 163.042 342.959 162.884 342.148 162.559C341.337 162.235 340.6 161.752 339.979 161.138C339.358 160.524 338.867 159.792 338.533 158.985C338.2 158.178 338.032 157.313 338.038 156.44C338.018 154.675 338.692 152.973 339.915 151.701C341.139 150.428 342.813 149.688 344.577 149.639C345.45 149.623 346.317 149.782 347.128 150.106C347.939 150.43 348.676 150.913 349.297 151.527C349.918 152.141 350.409 152.873 350.743 153.68C351.076 154.487 351.244 155.352 351.238 156.225Z" fill="#EBEBEB"/>
<path d="M280.995 122.556L280.649 123.218L344.272 156.48L344.618 155.817L280.995 122.556Z" fill="#C7C7C7"/>
<path d="M277.969 124.379L278.128 124.313L281.043 123.416L275.297 120.408L272.187 121.352L277.969 124.379Z" fill="#C7C7C7"/>
<path d="M274.606 116.727L275.643 119.754L281.388 122.753C280.932 121.79 280.591 120.777 280.37 119.735L274.606 116.727Z" fill="#C7C7C7"/>
<path d="M346.016 155.59L344.811 157.748L341.625 157.477L343.718 155.758L343.933 153.067L346.016 155.59Z" fill="#C7C7C7"/>
<path d="M131.749 243.591C132.074 245.32 131.953 247.103 131.397 248.771C130.841 250.44 129.869 251.94 128.573 253.129L117.718 255.156C116.035 254.495 114.553 253.405 113.42 251.996C112.287 250.587 111.542 248.906 111.258 247.12C110.974 245.334 111.161 243.505 111.8 241.813C112.44 240.122 113.51 238.627 114.905 237.476C116.299 236.325 117.97 235.558 119.752 235.25C121.534 234.943 123.366 235.106 125.065 235.724C126.765 236.342 128.274 237.392 129.443 238.772C130.612 240.152 131.4 241.813 131.731 243.591H131.749Z" fill="#EBEBEB"/>
<path d="M133.978 252.126L112.313 256.161L112.895 259.283L134.56 255.249L133.978 252.126Z" fill="#EBEBEB"/>
<path d="M153.083 293.071L109.201 301.243L109.783 304.366L153.664 296.193L153.083 293.071Z" fill="#DBDBDB"/>
<path d="M154.714 301.825L110.833 309.998L111.414 313.12L155.295 304.948L154.714 301.825Z" fill="#DBDBDB"/>
<path d="M152.03 296.5L111.418 304.063L112.467 309.693L153.079 302.13L152.03 296.5Z" fill="#EBEBEB"/>
<path d="M132.567 255.628L114.897 258.919L115.479 262.042L133.149 258.751L132.567 255.628Z" fill="#DBDBDB"/>
<path d="M149.125 293.804L113.224 300.493C113.224 300.493 119.885 290.777 119.764 280.65C119.652 272.121 118.4 261.499 118.4 261.499L130.245 259.295C130.245 259.295 132.898 269.655 135.85 277.652C139.391 287.171 149.125 293.804 149.125 293.804Z" fill="#EBEBEB"/>
<path d="M89.9722 406.346C137.449 406.346 175.937 402.394 175.937 397.518C175.937 392.642 137.449 388.69 89.9722 388.69C42.4953 388.69 4.00769 392.642 4.00769 397.518C4.00769 402.394 42.4953 406.346 89.9722 406.346Z" fill="#EBEBEB"/>
<path d="M0 365.186L49.4282 364.952L98.847 364.877L197.703 364.719L296.56 364.877L345.988 364.952L395.407 365.186L345.988 365.41L296.56 365.494L197.703 365.653L98.847 365.494L49.4282 365.41L0 365.186Z" fill="#263238"/>
<path d="M28.3528 70.3634C28.2892 63.1784 29.4389 56.0343 31.7532 49.232C35.3197 38.9744 41.4689 29.8088 49.6078 22.6189C57.7468 15.429 67.6009 10.4574 78.22 8.18349C81.7509 7.46687 85.3347 7.04194 88.9352 6.91299C89.8694 6.91299 90.7382 6.85693 91.635 6.85693L94.3349 6.9597C96.1378 6.9597 97.9315 7.23996 99.7158 7.43614C106.896 8.33346 113.856 10.5103 120.268 13.8634C126.661 17.1521 132.441 21.5162 137.354 26.7646C142.239 32.0406 146.216 38.0887 149.125 44.6637C143.064 31.6046 132.779 20.9683 119.932 14.4706C116.748 12.8778 113.443 11.5408 110.048 10.4723C108.338 10.0052 106.629 9.53807 104.891 9.13637L102.275 8.65059L100.958 8.39835L99.613 8.24888C97.8501 8.00946 96.0758 7.8629 94.2975 7.80981L91.635 7.71639C90.7008 7.71639 89.8601 7.71639 88.9726 7.77244C85.4206 7.92876 81.8872 8.37239 78.4069 9.099C71.4421 10.579 64.7777 13.2258 58.6954 16.9275C52.6253 20.6847 47.2182 25.4195 42.6926 30.9404C33.5943 42.0829 28.5395 55.9794 28.3528 70.3634Z" fill="#263238"/>
<path d="M38.1618 23.9807C41.1207 20.1252 44.5368 16.6432 48.3352 13.6112C55.9565 7.48643 64.9204 3.2542 74.4926 1.26116C75.6883 1.05564 76.8841 0.803407 78.0799 0.635252C79.2756 0.467097 80.4901 0.308287 81.6952 0.196183L85.3292 0H88.9632L85.3479 0.224208L81.7513 0.625911C80.5555 0.784724 79.3691 0.999587 78.1826 1.18643C76.9962 1.37326 75.8285 1.69089 74.6514 1.93378C65.2781 4.1819 56.469 8.33839 48.7742 14.1437C44.9249 17.0693 41.3705 20.364 38.1618 23.9807Z" fill="#263238"/>
<path d="M315.262 136.075C329.487 133.814 342.523 126.792 352.238 116.158C357.026 110.877 360.908 104.842 363.728 98.2959C366.514 91.7407 368.163 84.759 368.605 77.6502C368.823 74.1034 368.751 70.5448 368.39 67.0097C368.278 66.1316 368.184 65.2441 368.063 64.366L367.577 61.7409C367.264 59.9932 366.862 58.2627 366.372 56.5561C366.251 56.1264 366.148 55.6967 366.026 55.2669L365.597 54.0058L364.728 51.4834C364.102 49.8206 363.373 48.1951 362.654 46.5696C361.102 43.3714 359.299 40.3008 357.264 37.3865C348.973 25.6162 336.957 16.9837 323.156 12.8826C330.082 14.7948 336.642 17.8445 342.569 21.9069C348.492 26.0095 353.662 31.1041 357.852 36.9661C362.097 42.8087 365.261 49.3644 367.194 56.3226C367.699 58.0536 368.117 59.809 368.446 61.5821L368.941 64.2352C369.072 65.1694 369.165 66.0195 369.287 66.9163C369.668 70.5029 369.756 74.1147 369.548 77.7156C368.655 92.2224 362.757 105.97 352.858 116.613C342.96 127.255 329.676 134.134 315.272 136.075H315.262Z" fill="#263238"/>
<path d="M376.788 71.2697C376.647 66.4451 376.037 61.6457 374.967 56.9392C372.803 47.5464 368.722 38.7017 362.981 30.9593C362.233 30.0251 361.533 29.0348 360.757 28.1567C359.982 27.2785 359.197 26.2883 358.385 25.4382L355.89 22.7944L353.256 20.2908L356.058 22.6076L358.712 25.0925C359.571 25.952 360.374 26.8582 361.206 27.7456C362.037 28.6331 362.766 29.614 363.551 30.5482C366.554 34.3824 369.109 38.5481 371.164 42.9636C373.183 47.397 374.694 52.0446 375.667 56.8177C376.625 61.5719 377.001 66.4248 376.788 71.2697Z" fill="#263238"/>
<path d="M271.038 149.564C266.745 166.043 256.901 180.536 243.166 190.601C229.431 200.665 212.644 205.685 195.639 204.813C191.418 204.568 187.225 203.974 183.102 203.038C182.074 202.785 181.047 202.552 180.028 202.281L177.002 201.347C174.983 200.729 172.996 200.009 171.051 199.189C170.565 198.993 170.07 198.806 169.584 198.6L168.155 197.909L165.306 196.554C164.371 196.106 163.437 195.517 162.503 195.013C161.569 194.508 160.635 193.967 159.766 193.406C156.206 191.133 152.85 188.558 149.733 185.708L147.416 183.569L145.248 181.262C143.744 179.767 142.446 178.076 141.138 176.45C140.447 175.656 139.877 174.769 139.27 173.909L137.485 171.331L135.85 168.631C135.309 167.697 134.739 166.838 134.29 165.885C130.354 158.432 127.678 150.38 126.368 142.053C129.25 158.709 137.666 173.906 150.256 185.185C153.376 187.965 156.716 190.49 160.242 192.733C161.12 193.285 162.045 193.78 162.942 194.312C163.839 194.845 164.736 195.387 165.689 195.826L168.491 197.171L169.902 197.853C170.378 198.058 170.836 198.236 171.359 198.423C173.281 199.236 175.246 199.944 177.245 200.543L180.243 201.478C181.252 201.739 182.27 201.963 183.279 202.216C187.355 203.121 191.498 203.693 195.667 203.925C204.023 204.372 212.395 203.393 220.423 201.029C232.516 197.447 243.501 190.854 252.35 181.867C261.2 172.881 267.623 161.795 271.019 149.648L271.038 149.564Z" fill="#263238"/>
<path d="M245.824 199.161C241.288 202.608 236.354 205.497 231.129 207.765C220.628 212.36 209.196 214.43 197.75 213.809C196.33 213.687 194.947 213.613 193.49 213.444C192.033 213.276 190.688 213.089 189.268 212.847C187.848 212.604 186.465 212.295 185.092 211.987L180.972 210.875L185.138 211.744C186.53 211.978 187.941 212.174 189.333 212.398C190.725 212.622 192.136 212.706 193.546 212.856C194.957 213.005 196.349 213.005 197.778 213.089C203.412 213.27 209.049 212.848 214.594 211.828C220.151 210.834 225.587 209.252 230.811 207.111C236.066 204.964 241.095 202.301 245.824 199.161Z" fill="#263238"/>
<path d="M251.018 132.151C250.445 137.41 249.085 142.552 246.982 147.406L256.455 154.207L251.55 162.69L240.956 157.897C237.826 162.163 234.079 165.941 229.84 169.108L234.641 179.739L226.159 184.625L219.377 175.199C214.536 177.328 209.403 178.717 204.149 179.318L202.991 190.949H193.201L192.042 179.384C186.788 178.809 181.649 177.451 176.796 175.357L169.995 184.821L161.513 179.926L166.286 169.323C162.024 166.191 158.247 162.448 155.076 158.215L144.454 162.923L139.578 154.516L149.023 147.733C146.889 142.894 145.497 137.761 144.893 132.506L133.244 131.31V121.52L144.819 120.371C145.393 115.109 146.753 109.964 148.854 105.106L139.382 98.3052L144.286 89.8321L154.88 94.6152C158.008 90.3467 161.755 86.5684 165.997 83.4048L161.27 72.8017L169.752 67.8972L176.525 77.3326C181.362 75.2173 186.488 73.8381 191.734 73.2408L192.883 61.6475H202.673L203.832 73.2128C209.087 73.7792 214.228 75.1366 219.078 77.2392L225.888 67.7758L234.361 72.6803L229.587 83.274C233.85 86.4094 237.627 90.1552 240.798 94.3909L251.429 89.5892L256.324 98.081L246.879 104.854C248.993 109.681 250.366 114.798 250.952 120.035L262.574 121.202V131.002L251.018 132.151Z" fill="#EA2728"/>
<path d="M133.702 82.5828C132.635 88.1865 130.462 93.5217 127.312 98.2772L134.225 106.806L123.426 117.083L115.756 110.16C110.892 113.501 105.4 115.818 99.613 116.97L98.5387 127.191L83.7318 126.798L83.1899 117.148C77.1903 116.071 71.4894 113.727 66.4679 110.272L58.8916 116.41L48.6154 105.629L54.9025 98.6696C51.4514 93.5816 49.1323 87.8123 48.1016 81.7514L38.4981 80.7144L38.8905 65.842L48.4566 65.3563C49.6924 59.4391 52.1626 53.8492 55.7059 48.9518L49.2974 41.0486L60.0873 30.7724L67.6543 37.6014C72.5791 34.4666 78.0853 32.3569 83.8438 31.3983L84.9742 20.6084L99.8373 21.0008L100.388 31.8374C105.924 33.0776 111.16 35.4018 115.793 38.6757L124.631 31.5011L134.86 42.3004L127.387 50.596C130.463 55.2713 132.602 60.5001 133.683 65.9915L145.034 67.1779L144.641 82.041L133.702 82.5828Z" fill="#455A64"/>
<path d="M96.988 88.7392L85.9645 88.6364V88.4496C85.6305 86.698 85.197 84.967 84.6659 83.2648C84.1301 82.3176 83.4051 81.4908 82.536 80.8359C80.6543 79.3077 79.104 77.4119 77.9797 75.2644C76.8553 73.1169 76.1806 70.7628 75.9966 68.3457C75.8467 66.0897 76.1533 63.8265 76.8981 61.6917C77.6429 59.5569 78.8106 57.5942 80.3313 55.9209C81.8118 54.3413 83.6039 53.0858 85.5942 52.2338C87.5846 51.3819 89.73 50.952 91.895 50.9713C94.0599 50.9906 96.1973 51.4587 98.1722 52.3461C100.147 53.2334 101.916 54.5206 103.369 56.1265C104.862 57.827 105.996 59.8114 106.704 61.9608C107.412 64.1102 107.679 66.3804 107.488 68.6353C107.253 71.0526 106.527 73.3964 105.354 75.5232C104.182 77.65 102.587 79.515 100.669 81.004C99.7863 81.6402 99.0478 82.455 98.5014 83.3956C97.9368 85.0865 97.4689 86.8082 97.1001 88.5523L96.988 88.7392ZM86.3475 88.188L96.6236 88.2814C96.9805 86.5731 97.4423 84.8883 98.0062 83.2368C98.5705 82.2222 99.352 81.3449 100.295 80.6677C102.733 78.5284 106.068 75.5951 106.956 68.5979C107.141 66.408 106.881 64.2033 106.193 62.1163C105.504 60.0293 104.4 58.103 102.948 56.4534C101.54 54.8966 99.8243 53.6487 97.9094 52.7886C95.9944 51.9285 93.922 51.4749 91.8229 51.4565C89.7237 51.4381 87.6436 51.8552 85.7139 52.6815C83.7842 53.5078 82.0468 54.7254 80.6115 56.2573C79.1322 57.8798 77.9957 59.7844 77.2701 61.8568C76.5445 63.9291 76.2448 66.1267 76.389 68.3177C77.1457 75.3241 80.4247 78.3229 82.8256 80.5089C83.7527 81.2053 84.5176 82.0946 85.0676 83.1153C85.5988 84.7781 86.0263 86.4722 86.3475 88.188Z" fill="white"/>
<path d="M86.378 71.4242L85.6881 71.5464L88.6913 88.5091L89.3812 88.387L86.378 71.4242Z" fill="white"/>
<path d="M97.2299 71.5254L93.9135 88.4297L94.601 88.5646L97.9175 71.6603L97.2299 71.5254Z" fill="white"/>
<path d="M91.7471 77.2112C90.7475 77.2112 89.8787 76.277 89.2902 75.1746C89.1782 75.3161 89.0364 75.4312 88.875 75.512C88.7136 75.5927 88.5364 75.637 88.356 75.6417C86.7305 75.6417 86.1139 72.3066 86.0859 72.1665L86.4316 72.1105C86.5904 72.9886 87.2443 75.2867 88.356 75.2961C88.5037 75.2776 88.6458 75.2281 88.773 75.1508C88.9002 75.0735 89.0096 74.9702 89.094 74.8476C88.6342 73.9089 88.3764 72.8841 88.3373 71.8395C88.3373 70.9053 88.711 70.3635 89.3369 70.3635C89.5257 70.3564 89.7127 70.4015 89.8775 70.4938C90.0423 70.5861 90.1785 70.722 90.2711 70.8867C90.7662 71.7648 90.3739 73.4837 89.7293 74.5674C89.6675 74.6825 89.5956 74.7919 89.5144 74.8944C90.0843 75.9874 90.8783 76.8562 91.7378 76.8655C92.5225 76.8655 93.2138 76.1649 93.7183 75.2213C93.0816 74.4037 92.7511 73.3891 92.7841 72.3534C92.7841 71.1482 93.2605 70.4009 93.9985 70.4102C94.5964 70.4102 94.9327 71.0081 94.9327 72.0357C94.8852 73.1193 94.6149 74.1815 94.1387 75.1559C94.41 75.4239 94.7756 75.5748 95.1569 75.5763C96.0911 75.5763 96.9693 73.2875 97.2308 72.4001L97.5672 72.4935C97.4644 72.8485 96.5302 75.9406 95.1476 75.9313C94.7128 75.9174 94.2965 75.7522 93.9705 75.4642C93.788 75.9263 93.486 76.3317 93.0953 76.6386C92.7046 76.9456 92.2393 77.1432 91.7471 77.2112ZM93.9985 70.7559C93.3633 70.7559 93.1391 71.6153 93.1297 72.3534C93.1169 73.2562 93.3846 74.1407 93.8958 74.885C94.3121 73.9902 94.547 73.0218 94.5871 72.0357C94.5871 71.6527 94.5404 70.7559 93.9985 70.7559ZM89.3276 70.7559C88.7951 70.7559 88.683 71.3724 88.6736 71.8956C88.7097 72.826 88.9288 73.7403 89.3182 74.5861L89.4023 74.4366C89.9909 73.5024 90.3365 71.8395 89.9348 71.1109C89.877 71.0007 89.7895 70.909 89.6821 70.8463C89.5747 70.7835 89.4519 70.7522 89.3276 70.7559Z" fill="white"/>
<path d="M98.2585 90.8597L84.666 90.7383V87.7021L98.2678 87.8236L98.2585 90.8597ZM85.1331 90.2712L97.7914 90.3926V88.2907L85.1517 88.1879L85.1331 90.2712Z" fill="white"/>
<path d="M98.2304 93.8397L84.666 93.7183V90.6821L98.2678 90.8036L98.2304 93.8397ZM85.105 93.2512L97.7727 93.3726V91.2707L85.105 91.1586V93.2512Z" fill="white"/>
<path d="M98.2024 96.8199L84.6006 96.6985V93.6624L98.2024 93.7931V96.8199ZM85.077 96.2314L97.7447 96.3528V94.2509L85.077 94.1388V96.2314Z" fill="white"/>
<path d="M219.19 109.487L209.969 101.622L210.081 101.444C210.175 101.304 212.361 98.0996 215.481 97.7073C216.278 97.6192 217.084 97.7056 217.844 97.9605C218.604 98.2154 219.299 98.6327 219.881 99.1833C220.523 99.6758 221.051 100.302 221.429 101.018C221.806 101.734 222.024 102.523 222.067 103.331C222.189 106.517 219.461 109.254 219.349 109.366L219.19 109.487ZM210.595 101.537L219.162 108.843C219.722 108.226 221.703 105.881 221.6 103.303C221.556 102.562 221.353 101.838 221.005 101.182C220.657 100.526 220.172 99.9528 219.582 99.5009C219.049 98.9935 218.412 98.6086 217.715 98.373C217.018 98.1374 216.278 98.0569 215.546 98.137C213.062 98.464 211.118 100.874 210.623 101.537H210.595Z" fill="white"/>
<path d="M184.326 151.741L183.961 151.442L219.078 108.955L210.53 101.668L175.423 144.146L175.058 143.847L210.474 101.005L219.732 108.899L219.591 109.077L184.326 151.741Z" fill="white"/>
<path d="M218.975 111.365L208.222 102.201L209.923 100.146L220.666 109.32L218.975 111.365ZM208.914 102.136L218.947 110.702L220.059 109.366L210.016 100.8L208.914 102.136Z" fill="white"/>
<path d="M217.424 113.234L206.672 104.069L208.372 102.014L219.124 111.178L217.424 113.234ZM207.326 104.013L217.321 112.57L218.433 111.234L208.391 102.677L207.326 104.013Z" fill="white"/>
<path d="M173.732 154.983L175.096 143.987H175.283L176.974 143.707L177.245 143.66V145.417L179.019 145.174V146.93L180.738 146.64V148.397L182.439 148.098V149.863L183.877 149.611H184.139V151.825L173.732 154.983ZM175.516 144.426L174.283 154.32L176.404 153.666L183.681 151.396V150.069L182.252 150.321L181.981 150.368V148.602L180.271 148.901V147.145L178.552 147.435V145.678L176.833 145.968V144.24L175.516 144.426Z" fill="white"/>
<path d="M173.9 154.665L174.461 150.246L178.123 153.367L173.9 154.665ZM174.834 151.162L174.47 154.011L177.188 153.17L174.834 151.162Z" fill="white"/>
<path d="M179.86 143.464C182.084 140.363 184.419 137.345 186.773 134.347C189.127 131.348 191.556 128.414 193.948 125.434C196.339 122.454 198.834 119.596 201.337 116.718C203.841 113.841 206.373 110.982 208.998 108.208C206.774 111.319 204.439 114.327 202.085 117.335C199.731 120.343 197.302 123.267 194.91 126.238C192.519 129.208 190.024 132.086 187.511 134.954C184.998 137.822 182.485 140.69 179.86 143.464Z" fill="white"/>
<path d="M183.905 146.827C186.138 143.716 188.474 140.708 190.818 137.7C193.163 134.692 195.601 131.768 197.993 128.797C200.384 125.827 202.879 122.949 205.392 120.072C207.905 117.195 210.418 114.336 213.043 111.571C210.819 114.672 208.484 117.69 206.13 120.689C203.776 123.687 201.347 126.63 198.955 129.591C196.564 132.553 194.069 135.439 191.566 138.317C189.062 141.194 186.493 144.053 183.905 146.827Z" fill="white"/>
<path d="M345.586 82.5829C344.519 88.1867 342.347 93.5219 339.196 98.2774L346.109 106.807L335.31 117.083L327.64 110.16C322.784 113.52 317.295 115.856 311.507 117.027L310.432 127.247L295.569 126.854L295.074 117.148C289.075 116.072 283.374 113.728 278.352 110.272L270.776 116.41L260.5 105.629L266.787 98.6697C263.333 93.5832 261.014 87.8133 259.986 81.7515L250.383 80.7145L250.775 65.8422L260.341 65.3564C261.577 59.4376 264.051 53.8472 267.6 48.9519L261.228 41.0673L272.018 30.7912L279.585 37.6202C284.51 34.4854 290.016 32.3757 295.775 31.4171L296.905 20.6272L311.768 21.0196L312.32 31.8562C317.837 33.0987 323.056 35.416 327.678 38.6758L336.506 31.5012L346.782 42.3005L339.308 50.5961C342.385 55.2714 344.524 60.5002 345.605 65.9916L356.955 67.1781L356.516 82.0037L345.586 82.5829Z" fill="#455A64"/>
<path d="M291.468 99.202H289.189V55.2202H291.468V99.202ZM289.656 98.7349H291.001V55.6873H289.656V98.7349Z" fill="white"/>
<path d="M322.213 77.4447H291.001V56.2104H322.213L311.572 66.8229L322.213 77.4447ZM291.468 76.9776H321.082L310.909 66.8229L321.082 56.6775H291.468V76.9776Z" fill="white"/>
<path d="M296.27 228.28H99.1366V240.732H296.27V228.28Z" fill="white"/>
<path d="M296.27 240.723L99.1553 241.059H98.819V240.723V228.28V227.925H99.174L197.703 228.037L296.27 228.242V240.723ZM296.27 240.723V228.28L197.703 228.522L99.1366 228.625L99.4823 228.28V240.723L99.146 240.396L296.27 240.723Z" fill="#263238"/>
<path d="M229.092 230.475H101.537V238.528H229.092V230.475Z" fill="#EA2728"/>
<path opacity="0.1" d="M114.364 230.475H107.759L101.537 238.528H108.142L114.364 230.475Z" fill="black"/>
<path opacity="0.1" d="M127.116 230.475H120.511L114.28 238.528H120.885L127.116 230.475Z" fill="black"/>
<path opacity="0.1" d="M139.867 230.475H133.263L127.032 238.528H133.636L139.867 230.475Z" fill="black"/>
<path opacity="0.1" d="M152.61 230.475H146.005L139.774 238.528H146.379L152.61 230.475Z" fill="black"/>
<path opacity="0.1" d="M165.362 230.475H158.757L152.526 238.528H159.131L165.362 230.475Z" fill="black"/>
<path opacity="0.1" d="M178.104 230.475H171.509L165.277 238.528H171.882L178.104 230.475Z" fill="black"/>
<path opacity="0.1" d="M190.856 230.475H184.251L178.02 238.528H184.625L190.856 230.475Z" fill="black"/>
<path opacity="0.1" d="M203.607 230.475H197.003L190.772 238.528H197.376L203.607 230.475Z" fill="black"/>
<path opacity="0.1" d="M216.35 230.475H209.745L203.523 238.528H210.128L216.35 230.475Z" fill="black"/>
<path opacity="0.1" d="M229.083 230.503V230.475H222.497L216.266 238.528H222.871L229.083 230.503Z" fill="black"/>
<path opacity="0.1" d="M229.083 238.528V238.444L229.018 238.528H229.083Z" fill="black"/>
<path d="M180.888 248.935H179.954V250.485C179.954 250.537 179.944 250.588 179.924 250.636C179.904 250.683 179.875 250.726 179.839 250.763C179.802 250.799 179.759 250.828 179.711 250.848C179.664 250.868 179.613 250.878 179.561 250.878C179.456 250.878 179.356 250.837 179.281 250.763C179.205 250.69 179.162 250.59 179.16 250.485V246.263C179.16 246.21 179.17 246.159 179.19 246.11C179.211 246.062 179.24 246.019 179.278 245.982C179.315 245.945 179.36 245.917 179.408 245.898C179.457 245.878 179.509 245.869 179.561 245.87H180.888C181.294 245.87 181.684 246.032 181.971 246.319C182.259 246.607 182.42 246.996 182.42 247.403C182.42 247.809 182.259 248.199 181.971 248.486C181.684 248.773 181.294 248.935 180.888 248.935ZM180 248.141H180.888C181.084 248.141 181.271 248.063 181.41 247.924C181.548 247.786 181.626 247.598 181.626 247.403C181.626 247.207 181.548 247.019 181.41 246.881C181.271 246.742 181.084 246.665 180.888 246.665H179.954L180 248.141Z" fill="black"/>
<path d="M186.661 250.28C186.679 250.329 186.686 250.382 186.683 250.435C186.679 250.487 186.666 250.538 186.642 250.585C186.618 250.633 186.586 250.674 186.546 250.709C186.506 250.743 186.459 250.768 186.409 250.784H186.26C186.161 250.787 186.063 250.761 185.979 250.709C185.883 250.644 185.803 250.558 185.746 250.457C185.634 250.185 185.583 249.892 185.596 249.598C185.601 249.489 185.572 249.381 185.512 249.29C185.457 249.205 185.384 249.135 185.297 249.084C185.175 249.003 185.039 248.946 184.896 248.916H184.055V250.467C184.055 250.519 184.044 250.571 184.024 250.619C184.004 250.667 183.974 250.711 183.937 250.747C183.899 250.784 183.855 250.813 183.806 250.832C183.757 250.851 183.705 250.86 183.653 250.859C183.602 250.859 183.551 250.849 183.503 250.829C183.455 250.809 183.412 250.78 183.376 250.744C183.339 250.708 183.31 250.664 183.291 250.617C183.271 250.569 183.261 250.518 183.261 250.467V246.244C183.259 246.192 183.269 246.141 183.288 246.092C183.307 246.044 183.336 246 183.373 245.964C183.409 245.927 183.453 245.898 183.501 245.879C183.55 245.86 183.601 245.85 183.653 245.852H184.933C185.135 245.852 185.335 245.892 185.521 245.969C185.708 246.047 185.877 246.16 186.02 246.304C186.162 246.447 186.275 246.617 186.351 246.804C186.428 246.991 186.466 247.191 186.465 247.393C186.465 247.617 186.415 247.839 186.318 248.041C186.221 248.243 186.08 248.421 185.905 248.561C186 248.636 186.085 248.724 186.157 248.822C186.309 249.053 186.39 249.322 186.39 249.598C186.38 249.738 186.38 249.878 186.39 250.018C186.454 250.035 186.513 250.068 186.56 250.113C186.608 250.159 186.642 250.217 186.661 250.28ZM185.662 247.412C185.663 247.314 185.645 247.217 185.608 247.127C185.572 247.036 185.517 246.953 185.449 246.884C185.38 246.814 185.298 246.759 185.208 246.721C185.118 246.684 185.021 246.664 184.924 246.664H184.045V248.14H184.924C185.118 248.14 185.304 248.064 185.442 247.928C185.58 247.791 185.659 247.606 185.662 247.412Z" fill="black"/>
<path d="M191.65 246.496C192.111 246.985 192.368 247.632 192.368 248.304C192.368 248.976 192.111 249.623 191.65 250.112C191.433 250.35 191.169 250.542 190.875 250.674C190.581 250.805 190.263 250.875 189.94 250.878C189.611 250.877 189.285 250.808 188.983 250.677C188.681 250.545 188.409 250.353 188.184 250.112C187.727 249.621 187.473 248.975 187.473 248.304C187.473 247.633 187.727 246.987 188.184 246.496C188.407 246.253 188.679 246.06 188.981 245.928C189.284 245.796 189.61 245.729 189.94 245.73C190.263 245.731 190.582 245.8 190.876 245.932C191.171 246.064 191.434 246.256 191.65 246.496ZM191.556 248.299C191.555 247.836 191.382 247.39 191.071 247.047C190.925 246.889 190.749 246.762 190.551 246.675C190.354 246.588 190.142 246.543 189.926 246.543C189.711 246.543 189.498 246.588 189.301 246.675C189.104 246.762 188.927 246.889 188.782 247.047C188.472 247.391 188.3 247.837 188.3 248.299C188.3 248.762 188.472 249.208 188.782 249.551C188.926 249.713 189.102 249.842 189.299 249.93C189.496 250.019 189.71 250.065 189.926 250.065C190.142 250.065 190.356 250.019 190.553 249.93C190.751 249.842 190.927 249.713 191.071 249.551C191.382 249.208 191.555 248.762 191.556 248.299Z" fill="black"/>
<path d="M193.341 248.299C193.355 247.613 193.638 246.959 194.129 246.479C194.62 245.999 195.279 245.73 195.966 245.73C196.563 245.727 197.144 245.921 197.619 246.281C197.699 246.353 197.75 246.451 197.764 246.557C197.778 246.663 197.753 246.771 197.694 246.861C197.625 246.944 197.526 246.998 197.419 247.012C197.312 247.025 197.203 246.998 197.115 246.935C196.791 246.671 196.383 246.532 195.966 246.543C195.486 246.542 195.024 246.726 194.677 247.057C194.511 247.219 194.379 247.414 194.289 247.628C194.199 247.842 194.153 248.072 194.153 248.304C194.153 248.536 194.199 248.766 194.289 248.98C194.379 249.194 194.511 249.388 194.677 249.551C195.027 249.877 195.487 250.06 195.966 250.065C196.382 250.066 196.786 249.928 197.115 249.673C197.204 249.614 197.312 249.589 197.418 249.603C197.525 249.616 197.622 249.668 197.694 249.747C197.754 249.835 197.78 249.941 197.766 250.047C197.752 250.152 197.7 250.248 197.619 250.317C197.147 250.685 196.564 250.883 195.966 250.878C195.277 250.88 194.615 250.611 194.123 250.128C193.632 249.645 193.351 248.988 193.341 248.299Z" fill="black"/>
<path d="M199.077 250.485V246.263C199.075 246.211 199.085 246.159 199.104 246.111C199.123 246.063 199.152 246.019 199.189 245.983C199.225 245.946 199.269 245.917 199.317 245.898C199.366 245.878 199.417 245.869 199.469 245.87H201.804C201.909 245.87 202.008 245.912 202.082 245.985C202.156 246.059 202.197 246.159 202.197 246.263C202.198 246.315 202.189 246.367 202.17 246.416C202.151 246.465 202.122 246.509 202.085 246.546C202.049 246.584 202.005 246.613 201.957 246.634C201.909 246.654 201.857 246.665 201.804 246.665H199.871V247.935H201.534C201.637 247.937 201.735 247.98 201.808 248.053C201.881 248.126 201.924 248.224 201.926 248.327C201.927 248.38 201.918 248.432 201.899 248.48C201.88 248.529 201.851 248.573 201.814 248.611C201.778 248.648 201.734 248.678 201.686 248.698C201.638 248.719 201.586 248.729 201.534 248.729H199.871V250.046H201.804C201.899 250.061 201.986 250.109 202.048 250.182C202.111 250.255 202.145 250.347 202.145 250.443C202.145 250.539 202.111 250.632 202.048 250.705C201.986 250.778 201.899 250.826 201.804 250.84H199.469C199.371 250.841 199.277 250.805 199.204 250.739C199.131 250.673 199.086 250.583 199.077 250.485Z" fill="black"/>
<path d="M203.159 249.635C203.223 249.561 203.312 249.514 203.409 249.503C203.507 249.493 203.604 249.52 203.682 249.579C204.062 249.91 204.543 250.105 205.046 250.13C205.378 250.146 205.705 250.054 205.98 249.869C206.069 249.815 206.144 249.739 206.198 249.65C206.251 249.56 206.283 249.459 206.289 249.355C206.287 249.273 206.264 249.193 206.223 249.121C206.164 249.039 206.091 248.966 206.008 248.907C205.702 248.742 205.37 248.628 205.027 248.57C204.706 248.52 204.392 248.429 204.093 248.299C203.823 248.18 203.593 247.985 203.43 247.739C203.325 247.56 203.271 247.357 203.271 247.15C203.278 246.944 203.333 246.741 203.432 246.56C203.531 246.378 203.671 246.222 203.841 246.104C204.203 245.853 204.634 245.722 205.074 245.73C205.64 245.758 206.184 245.957 206.634 246.3C206.715 246.354 206.771 246.437 206.79 246.531C206.809 246.626 206.79 246.724 206.737 246.805C206.712 246.846 206.679 246.882 206.64 246.911C206.601 246.939 206.556 246.959 206.509 246.97C206.462 246.98 206.413 246.981 206.365 246.972C206.318 246.963 206.273 246.944 206.233 246.917C205.902 246.65 205.498 246.49 205.074 246.459C204.79 246.451 204.511 246.536 204.28 246.702C204.201 246.748 204.134 246.814 204.085 246.892C204.036 246.97 204.007 247.058 204 247.15C203.997 247.22 204.017 247.289 204.056 247.346C204.103 247.422 204.167 247.486 204.243 247.533C204.53 247.699 204.848 247.807 205.177 247.851C205.514 247.913 205.843 248.013 206.158 248.15C206.449 248.277 206.699 248.484 206.877 248.748C206.991 248.93 207.05 249.141 207.045 249.355C207.039 249.575 206.981 249.791 206.875 249.984C206.77 250.177 206.62 250.343 206.438 250.467C206.048 250.734 205.584 250.874 205.112 250.868C204.426 250.849 203.768 250.599 203.243 250.158C203.164 250.099 203.112 250.011 203.096 249.914C203.08 249.816 203.103 249.716 203.159 249.635Z" fill="black"/>
<path d="M207.849 249.635C207.912 249.561 208.002 249.514 208.099 249.503C208.196 249.493 208.294 249.52 208.372 249.579C208.757 249.909 209.239 250.102 209.745 250.13C210.061 250.138 210.371 250.047 210.633 249.869C210.722 249.815 210.796 249.739 210.85 249.65C210.904 249.56 210.935 249.459 210.941 249.355C210.944 249.272 210.921 249.191 210.875 249.121C210.823 249.036 210.753 248.963 210.67 248.907C210.363 248.742 210.032 248.628 209.689 248.57C209.367 248.52 209.053 248.429 208.755 248.299C208.485 248.18 208.255 247.985 208.092 247.739C207.984 247.561 207.926 247.358 207.923 247.15C207.93 246.942 207.986 246.739 208.086 246.557C208.187 246.375 208.33 246.22 208.503 246.104C208.864 245.853 209.296 245.722 209.736 245.73C210.301 245.758 210.845 245.957 211.296 246.3C211.364 246.36 211.408 246.442 211.42 246.532C211.432 246.622 211.411 246.713 211.361 246.789C211.311 246.864 211.234 246.919 211.147 246.942C211.059 246.966 210.966 246.957 210.885 246.917C210.558 246.65 210.157 246.491 209.736 246.459C209.449 246.452 209.167 246.537 208.932 246.702C208.855 246.75 208.79 246.816 208.743 246.894C208.696 246.972 208.668 247.06 208.661 247.15C208.659 247.22 208.678 247.289 208.717 247.346C208.762 247.424 208.827 247.489 208.904 247.533C209.192 247.699 209.509 247.807 209.839 247.851C210.176 247.913 210.505 248.013 210.819 248.15C211.111 248.277 211.36 248.484 211.539 248.748C211.649 248.931 211.707 249.141 211.707 249.355C211.701 249.576 211.641 249.792 211.534 249.986C211.427 250.179 211.275 250.344 211.09 250.467C210.704 250.735 210.243 250.875 209.773 250.868C209.088 250.849 208.43 250.599 207.905 250.158C207.83 250.095 207.783 250.005 207.773 249.908C207.762 249.811 207.789 249.713 207.849 249.635Z" fill="black"/>
<path d="M213.155 249.859C213.297 249.862 213.432 249.92 213.532 250.021C213.632 250.123 213.687 250.259 213.687 250.401C213.685 250.541 213.628 250.674 213.528 250.772C213.429 250.87 213.295 250.924 213.155 250.924C213.085 250.926 213.016 250.913 212.952 250.887C212.887 250.862 212.829 250.823 212.779 250.774C212.729 250.726 212.69 250.668 212.663 250.604C212.636 250.539 212.622 250.471 212.622 250.401C212.621 250.331 212.634 250.26 212.66 250.195C212.686 250.129 212.725 250.069 212.775 250.019C212.825 249.968 212.884 249.928 212.949 249.901C213.014 249.873 213.084 249.859 213.155 249.859Z" fill="black"/>
<path d="M214.799 249.859C214.941 249.862 215.077 249.92 215.176 250.021C215.276 250.123 215.332 250.259 215.332 250.401C215.329 250.541 215.272 250.674 215.172 250.772C215.073 250.87 214.939 250.924 214.799 250.924C214.73 250.926 214.661 250.913 214.596 250.887C214.531 250.862 214.473 250.823 214.423 250.774C214.374 250.726 214.334 250.668 214.307 250.604C214.28 250.539 214.267 250.471 214.267 250.401C214.265 250.331 214.278 250.26 214.304 250.195C214.331 250.129 214.37 250.069 214.419 250.019C214.469 249.968 214.528 249.928 214.593 249.901C214.658 249.873 214.728 249.859 214.799 249.859Z" fill="black"/>
<path d="M216.443 249.859C216.585 249.862 216.721 249.92 216.82 250.021C216.92 250.123 216.976 250.259 216.976 250.401C216.973 250.541 216.916 250.674 216.817 250.772C216.717 250.87 216.583 250.924 216.443 250.924C216.374 250.926 216.305 250.913 216.24 250.887C216.176 250.862 216.117 250.823 216.067 250.774C216.018 250.726 215.978 250.668 215.951 250.604C215.925 250.539 215.911 250.471 215.911 250.401C215.91 250.331 215.922 250.26 215.949 250.195C215.975 250.129 216.014 250.069 216.063 250.019C216.113 249.968 216.172 249.928 216.237 249.901C216.303 249.873 216.373 249.859 216.443 249.859Z" fill="black"/>
<path d="M57.0885 115.392C60.0032 136.934 69.4759 159.065 73.0446 162.4C76.9308 166.044 96.2779 167.959 106.096 168.444C109.31 168.613 111.823 146.556 109.235 144.286C106.647 142.016 89.9815 144.529 87.1135 142.418C86.1793 141.745 72.811 124.014 65.8139 113.458C59.2839 103.593 56.201 108.843 57.0885 115.392Z" fill="#F7A9A0"/>
<path d="M103.35 171.555L106.489 142.427C106.489 142.427 90.4579 143.165 88.4494 141.736C86.4409 140.307 71.1855 119.1 65.4496 111.842C59.7136 104.583 52.9501 104.835 57.0418 121.828C61.4138 140.185 67.6823 158.57 71.5405 162.41C76.5478 167.436 103.35 171.555 103.35 171.555Z" fill="#EA2728"/>
<path d="M97.2682 168.398C97.2872 167.35 97.3714 166.305 97.5204 165.268C97.5952 164.334 97.6606 163.4 97.7446 162.465C97.9408 160.429 98.1277 158.402 98.3332 156.374C98.5387 154.347 98.7255 152.32 98.9497 150.293C99.1739 148.266 99.3328 146.257 99.6597 144.258C99.665 144.244 99.6746 144.231 99.6871 144.223C99.6996 144.214 99.7145 144.209 99.7298 144.209C99.745 144.209 99.7599 144.214 99.7725 144.223C99.785 144.231 99.7945 144.244 99.7999 144.258C99.8559 146.285 99.7158 148.322 99.6037 150.349C99.4916 152.376 99.3141 154.338 99.1179 156.318C98.9217 158.299 98.6601 160.363 98.3892 162.381C98.2584 163.316 98.0903 164.324 97.9315 165.287C97.816 166.332 97.6287 167.368 97.371 168.388C97.3676 168.399 97.3612 168.408 97.3526 168.415C97.344 168.422 97.3336 168.426 97.3227 168.427C97.3117 168.428 97.3007 168.426 97.291 168.42C97.2813 168.415 97.2734 168.407 97.2682 168.398Z" fill="#263238"/>
<path opacity="0.1" d="M90.215 169.07C82.6481 167.389 74.1189 165.016 71.4751 162.381C67.6169 158.542 61.3111 140.157 56.9764 121.819C54.4074 111.019 56.201 106.974 59.3212 107.32L90.215 169.07Z" fill="black"/>
<path d="M110.3 105.788C113.38 102.783 117.236 100.697 121.437 99.7649C125.637 98.8324 130.014 99.0904 134.075 100.51L120.53 113.738L125.107 123.659L134.916 128.48L148.481 115.279C149.744 119.202 149.937 123.39 149.039 127.411C148.141 131.433 146.185 135.142 143.373 138.154C140.562 141.166 136.996 143.373 133.046 144.545C129.096 145.718 124.904 145.814 120.904 144.824C116.905 143.833 113.242 141.792 110.295 138.912C107.349 136.032 105.225 132.416 104.144 128.44C103.063 124.464 103.063 120.271 104.146 116.295C105.228 112.319 107.353 108.705 110.3 105.825V105.788Z" fill="#DBDBDB"/>
<path d="M47.4944 231.764C44.4176 234.77 40.5625 236.857 36.3634 237.789C32.1644 238.722 27.7884 238.463 23.7285 237.042L37.2743 223.814L32.6967 213.893L22.8784 209.072L9.32322 222.31C8.05844 218.388 7.86462 214.198 8.76182 210.176C9.65901 206.154 11.6146 202.444 14.4264 199.431C17.2381 196.417 20.8039 194.21 24.7547 193.037C28.7056 191.864 32.8981 191.768 36.8985 192.759C40.899 193.75 44.562 195.792 47.5088 198.673C50.4555 201.554 52.5789 205.17 53.6594 209.148C54.7398 213.125 54.7379 217.318 53.6541 221.295C52.5702 225.271 50.4436 228.885 47.4944 231.764Z" fill="#DBDBDB"/>
<path d="M33.3494 198.852L47.7452 213.599L128.244 135.016L113.848 120.27L33.3494 198.852Z" fill="#DBDBDB"/>
<path d="M61.2622 180.077L67.1876 186.146L100.338 153.785L94.4122 147.716L61.2622 180.077Z" fill="#C7C7C7"/>
<path d="M92.5038 161.559C92.2049 158.486 95.9977 159.896 95.9977 159.896C95.9977 159.896 91.0185 156.552 91.934 153.264C92.8495 149.975 97.3523 151.956 97.6792 152.086C97.4177 151.909 92.9242 148.714 94.1854 145.547C95.4465 142.38 99.7158 144.856 99.9867 145.024C99.7999 144.781 97.2869 141.474 98.8003 139.26C101.397 135.439 109.366 144.277 113.093 144.52L117.69 139.288C117.242 141.023 117.31 142.851 117.886 144.548C118.633 147.014 119.147 148.667 118.867 150.255C118.763 150.976 118.429 151.644 117.916 152.16C117.403 152.677 116.737 153.015 116.017 153.123C116.017 153.123 118.381 155.384 117.475 157.944C116.998 159.252 114.476 159.672 114.476 159.672C114.985 160.211 115.336 160.88 115.489 161.605C115.642 162.33 115.592 163.084 115.345 163.783C114.588 165.567 112.178 165.698 112.178 165.698C112.178 165.698 113.112 168.332 111.72 169.892C108.955 173.022 93.1484 168.145 92.5038 161.559Z" fill="#F7A9A0"/>
<path d="M114.336 143.445L117.606 139.363C117.764 139.241 117.923 139.111 118.073 139.008C123.51 135.103 131.768 137.382 128.844 141.185C126.621 144.081 120.436 143.567 118.568 146.864L114.336 143.445Z" fill="#F7A9A0"/>
<path d="M114.56 159.691C114.625 159.691 114.56 159.803 114.56 159.803C108.144 159.379 102.09 156.676 97.4924 152.18C97.3429 152.021 97.3616 151.713 97.5578 151.89C100.781 154.796 109.319 158.551 114.56 159.691Z" fill="#263238"/>
<path d="M99.7905 144.557C104.321 148.901 109.796 151.367 115.775 153.086C115.859 153.086 115.775 153.217 115.775 153.217C112.617 153.17 108.918 151.676 106.134 150.274C103.525 149.001 101.293 147.069 99.6597 144.669C99.613 144.613 99.6878 144.464 99.7905 144.557Z" fill="#263238"/>
<path d="M122.034 397.891C119.876 398.564 58.7981 397.256 56.5 395.734C55.6312 395.164 55.3042 386.251 55.2108 375.48C55.2108 373.154 55.2108 370.753 55.2108 368.306C55.2108 365.419 55.2108 362.495 55.2669 359.655C55.435 346.894 55.818 332.862 55.818 332.862L95.5773 333.6L95.1195 360.393L94.9514 369.044L94.6057 376.209C94.6057 376.209 117.764 387.176 120.109 389.11C122.454 391.044 124.182 397.228 122.034 397.891Z" fill="#F7A9A0"/>
<path d="M122.034 397.892C119.876 398.564 58.7981 397.256 56.5 395.734C55.6312 395.164 55.3042 386.252 55.2108 375.48C55.2108 373.154 55.2108 370.753 55.2108 368.306C55.2108 365.419 55.2108 362.495 55.2669 359.655L95.1195 360.393L94.9514 369.044L94.6057 376.209C94.6057 376.209 117.764 387.176 120.109 389.11C122.454 391.044 124.182 397.228 122.034 397.892Z" fill="white"/>
<path d="M122.22 397.985C120.819 398.415 94.8019 398.032 75.8658 397.284C71.4845 397.107 67.4581 396.92 64.2445 396.714C59.7977 396.425 56.7709 396.126 56.3318 395.78C55.2669 395.07 54.9959 382.001 55.0053 368.212L94.9701 368.95L94.6244 376.153C94.6244 376.153 117.914 387.176 120.268 389.129C122.622 391.081 124.378 397.303 122.22 397.985Z" fill="#EA2728"/>
<path d="M121.389 395.537C111.113 395.061 69.5507 394.127 59.3493 394.444C59.2652 394.444 59.2652 394.5 59.3493 394.51C69.532 395.201 111.085 395.799 121.389 395.706C121.604 395.678 121.613 395.537 121.389 395.537Z" fill="#263238"/>
<path d="M96.1285 373.92C92.0928 373.079 87.1229 373.593 83.984 376.415C83.8625 376.527 83.984 376.695 84.1521 376.657C88.0517 375.497 92.063 374.752 96.1191 374.434C96.1791 374.424 96.2336 374.393 96.2733 374.347C96.313 374.3 96.3353 374.242 96.3364 374.181C96.3375 374.12 96.3173 374.061 96.2794 374.013C96.2414 373.966 96.1881 373.933 96.1285 373.92Z" fill="#263238"/>
<path d="M99.0151 375.751C94.9794 374.911 90.0095 375.424 86.8706 378.246C86.7492 378.348 86.8706 378.526 87.0388 378.488C90.9362 377.319 94.9484 376.574 99.0058 376.265C99.0658 376.255 99.1203 376.224 99.16 376.178C99.1996 376.131 99.2219 376.073 99.223 376.012C99.2241 375.951 99.204 375.892 99.166 375.844C99.1281 375.797 99.0747 375.764 99.0151 375.751Z" fill="#263238"/>
<path d="M101.902 377.573C97.8661 376.732 92.8962 377.246 89.7573 380.067C89.6358 380.179 89.7573 380.347 89.9254 380.31C93.8228 379.141 97.8351 378.395 101.892 378.087C101.952 378.076 102.007 378.045 102.047 377.999C102.086 377.953 102.109 377.894 102.11 377.834C102.111 377.773 102.091 377.713 102.053 377.666C102.015 377.618 101.961 377.585 101.902 377.573Z" fill="#263238"/>
<path d="M104.788 379.395C100.753 378.554 95.7828 379.068 92.6439 381.889C92.5225 382.001 92.6439 382.169 92.8121 382.132C96.7117 380.971 100.723 380.226 104.779 379.908C104.839 379.898 104.894 379.867 104.933 379.821C104.973 379.775 104.995 379.716 104.996 379.655C104.997 379.595 104.977 379.535 104.939 379.488C104.901 379.44 104.848 379.407 104.788 379.395Z" fill="#263238"/>
<path d="M103.817 364.709C102.266 362.476 99.2861 363.401 97.5578 364.784C94.6501 367.218 92.4309 370.371 91.1212 373.929C91.1154 373.945 91.1134 373.962 91.1152 373.979C91.117 373.996 91.1226 374.012 91.1316 374.027C91.1406 374.041 91.1527 374.053 91.1671 374.062C91.1815 374.071 91.1977 374.077 91.2146 374.079C91.2146 374.387 91.4855 374.723 91.8405 374.602C95.213 373.434 98.9591 372.603 101.874 370.436C103.574 369.184 105.274 366.82 103.817 364.709ZM96.5862 371.79C94.942 372.397 93.2792 372.93 91.663 373.602C92.9242 371.827 94.1013 369.996 95.5399 368.343C96.2185 367.537 96.9521 366.778 97.7353 366.073C98.9591 364.999 103.789 362.766 102.976 367.203C102.528 369.651 98.548 371.061 96.5862 371.799V371.79Z" fill="#263238"/>
<path d="M80.8451 372.668C84.1615 374.163 88.001 374.172 91.5416 374.593C91.6207 374.594 91.6991 374.577 91.7704 374.543C91.8417 374.509 91.904 374.458 91.9522 374.396C92.0004 374.333 92.0332 374.26 92.0478 374.182C92.0625 374.104 92.0587 374.024 92.0367 373.948C92.0537 373.944 92.0693 373.935 92.0823 373.923C92.0954 373.912 92.1055 373.897 92.1119 373.881C92.1182 373.864 92.1207 373.847 92.119 373.829C92.1173 373.812 92.1115 373.795 92.1021 373.78C90.0606 370.583 87.2163 367.977 83.8532 366.222C81.882 365.241 78.7618 364.971 77.7342 367.484C76.7533 369.847 78.9206 371.79 80.8451 372.668ZM79.0608 369.735C77.3232 365.578 82.5173 366.736 83.9466 367.521C84.8621 368.04 85.7394 368.624 86.5717 369.268C88.2804 370.621 89.9204 372.058 91.4855 373.574C89.7573 373.266 88.0197 373.107 86.2821 372.855C84.2269 372.556 80.0417 372.024 79.0608 369.735Z" fill="#263238"/>
<path opacity="0.1" d="M90.9624 397.761C85.815 397.63 80.6209 397.462 75.8658 397.284C71.4845 397.116 67.4581 396.92 64.2445 396.714C59.7977 396.425 56.7709 396.126 56.3318 395.78C55.3976 395.154 55.0707 385.056 55.0146 373.294C64.1137 379.385 81.8633 391.558 90.9624 397.761Z" fill="black"/>
<path d="M95.7268 371.977L53.1462 372.024C53.1462 372.024 55.6405 270.813 55.1454 268.431C53.9777 262.751 28.1753 172.695 28.1753 172.695L64.0016 173.311L70.5409 173.526C70.5409 173.526 93.2698 249.261 95.6614 263.097C99.8092 287.059 95.7268 371.977 95.7268 371.977Z" fill="#263238"/>
<path d="M93.3165 364.391C86.2447 364.214 64.9077 363.457 55.463 364.167C55.3976 364.167 55.3976 364.298 55.463 364.307C58.6953 364.831 86.2354 364.681 93.3165 364.588C93.3319 364.592 93.3482 364.594 93.3641 364.591C93.38 364.588 93.3951 364.582 93.4081 364.572C93.421 364.563 93.4316 364.55 93.4389 364.536C93.4462 364.522 93.4499 364.506 93.4499 364.49C93.4499 364.473 93.4462 364.458 93.4389 364.443C93.4316 364.429 93.421 364.416 93.4081 364.407C93.3951 364.397 93.38 364.391 93.3641 364.388C93.3482 364.386 93.3319 364.387 93.3165 364.391Z" fill="#37474F"/>
<path d="M58.7047 266.17C57.3501 260.649 47.2421 226.252 44.15 215.387C41.0578 204.523 38.1618 193.611 35.4993 182.644C35.1537 181.252 34.8174 179.841 34.4437 178.478C34.4437 178.365 34.2475 178.412 34.2662 178.534C35.2845 184.055 36.639 189.529 37.9376 194.994C39.2361 200.459 40.6187 205.905 42.0761 211.333C45.0032 222.244 48.1981 233.075 51.6609 243.824C53.3891 249.187 56.2478 260.182 57.7612 265.6C59.2745 271.019 56.827 359.02 56.9577 360.486C56.9707 360.562 57.0102 360.631 57.0692 360.681C57.1282 360.731 57.2029 360.758 57.28 360.758C57.3572 360.758 57.4319 360.731 57.4909 360.681C57.5499 360.631 57.5893 360.562 57.6023 360.486C57.7985 349.995 60.0499 271.626 58.7047 266.17Z" fill="#37474F"/>
<path d="M64.0109 173.302C64.0109 173.302 55.2482 268.889 55.1548 268.422C54.0244 262.929 29.7634 178.244 28.2406 172.947C28.1846 172.779 28.1659 172.695 28.1659 172.695L64.0109 173.302Z" fill="#37474F"/>
<path d="M74.9783 400.32C72.8204 400.993 11.7428 399.685 9.44467 398.162C8.57587 397.593 8.2489 388.68 8.15548 377.909C8.15548 375.583 8.15548 373.191 8.15548 370.744C8.15548 367.848 8.15548 364.924 8.22088 362.084C8.37969 349.332 8.76271 338.094 8.76271 338.094L48.5313 338.832L48.0455 362.841L47.8774 371.491L47.5411 378.656C47.5411 378.656 70.6997 389.624 73.0352 391.567C75.3707 393.51 77.1176 399.657 74.9783 400.32Z" fill="#F7A9A0"/>
<path d="M74.9783 400.321C72.8204 400.993 11.7428 399.685 9.44467 398.163C8.57587 397.593 8.2489 388.68 8.15548 377.909C8.15548 375.583 8.15548 373.192 8.15548 370.744C8.15548 367.848 8.15548 364.924 8.22088 362.084L48.0455 362.841L47.8774 371.491L47.5411 378.657C47.5411 378.657 70.6997 389.624 73.0352 391.567C75.3707 393.51 77.1176 399.657 74.9783 400.321Z" fill="white"/>
<path d="M75.1558 400.414C73.7545 400.853 47.7373 400.414 28.8012 399.723C24.4198 399.545 20.3934 399.349 17.1891 399.143C12.733 398.863 9.71558 398.564 9.26717 398.209C8.20219 397.499 7.93127 384.421 7.94062 370.632L47.9054 371.37L47.5598 378.572C47.5598 378.572 70.8492 389.596 73.2127 391.548C75.5762 393.501 77.3138 399.741 75.1558 400.414Z" fill="#EA2728"/>
<path d="M74.3337 397.938C64.0576 397.471 22.4953 396.528 12.2846 396.845C12.2005 396.845 12.2005 396.901 12.2846 396.911C22.4673 397.602 64.0296 398.2 74.3244 398.106C74.5393 398.106 74.5486 397.948 74.3337 397.938Z" fill="#263238"/>
<path d="M49.0638 376.358C45.0281 375.518 40.0675 376.032 36.9193 378.853C36.7885 378.956 36.9193 379.133 37.0781 379.096C40.972 377.921 44.981 377.17 49.0358 376.854C49.0886 376.839 49.1356 376.808 49.17 376.766C49.2045 376.723 49.2247 376.671 49.2278 376.616C49.2309 376.561 49.2167 376.507 49.1873 376.461C49.1579 376.415 49.1147 376.379 49.0638 376.358Z" fill="#263238"/>
<path d="M51.9692 378.18C47.9334 377.339 42.9729 377.853 39.8246 380.674C39.6939 380.786 39.8246 380.955 39.9835 380.917C43.8882 379.757 47.9066 379.021 51.9692 378.722C52.041 378.722 52.1099 378.693 52.1607 378.642C52.2115 378.592 52.2401 378.523 52.2401 378.451C52.2401 378.379 52.2115 378.31 52.1607 378.259C52.1099 378.209 52.041 378.18 51.9692 378.18Z" fill="#263238"/>
<path d="M54.8371 380.002C50.8014 379.161 45.8408 379.675 42.6926 382.496C42.5618 382.608 42.6926 382.776 42.8514 382.739C46.7361 381.583 50.7315 380.838 54.7717 380.516C54.8347 380.515 54.8953 380.491 54.9423 380.449C54.9892 380.407 55.0195 380.35 55.0274 380.287C55.0354 380.225 55.0205 380.161 54.9855 380.109C54.9506 380.056 54.8979 380.018 54.8371 380.002Z" fill="#263238"/>
<path d="M57.7238 381.833C53.6881 380.992 48.7275 381.506 45.5793 384.327C45.4485 384.43 45.5793 384.607 45.7381 384.57C49.6357 383.401 53.6479 382.656 57.7051 382.347C57.7654 382.338 57.8207 382.308 57.8613 382.262C57.9019 382.217 57.9254 382.158 57.9276 382.097C57.9298 382.037 57.9106 381.977 57.8734 381.928C57.8362 381.88 57.7833 381.846 57.7238 381.833Z" fill="#263238"/>
<path d="M56.7522 367.147C55.2015 364.924 52.2214 365.839 50.5025 367.231C47.5874 369.66 45.3641 372.815 44.0565 376.377C44.0565 376.461 44.0565 376.508 44.15 376.526C44.15 376.835 44.4302 377.162 44.7759 377.04C48.1483 375.873 51.8944 375.041 54.8091 372.874C56.5093 371.613 58.2096 369.249 56.7522 367.147ZM49.5309 374.228C47.8867 374.845 46.2145 375.368 44.5984 376.05C45.8011 374.233 47.0951 372.477 48.4753 370.791C49.1539 369.981 49.8874 369.22 50.6706 368.511C51.9038 367.446 56.7242 365.213 55.9115 369.641C55.463 372.08 51.4834 373.5 49.5309 374.228Z" fill="#263238"/>
<path d="M33.7897 375.097C37.0968 376.592 40.9363 376.601 44.4769 377.022C44.8413 377.068 45.0374 376.685 44.9814 376.377C44.9973 376.373 45.0119 376.364 45.024 376.353C45.0361 376.342 45.0453 376.328 45.0508 376.312C45.0563 376.297 45.0579 376.28 45.0556 376.264C45.0533 376.247 45.0471 376.232 45.0374 376.218C42.9989 373.016 40.1541 370.407 36.7885 368.651C34.8174 367.67 31.6971 367.409 30.6695 369.912C29.6419 372.416 31.856 374.228 33.7897 375.097ZM32.0148 372.183C30.2772 368.025 35.4713 369.174 36.9006 369.959C37.8134 370.483 38.6904 371.066 39.5257 371.706C41.2388 373.057 42.879 374.498 44.4396 376.022C42.7113 375.704 40.9737 375.546 39.2361 375.293C37.1622 374.985 32.977 374.462 32.0148 372.183Z" fill="#263238"/>
<path d="M49.2787 375.667L6.19368 374.854C6.19368 374.854 18.5531 217.91 17.0116 209.502C14.4987 195.732 16.6473 180.01 23.2707 172.545L66.1782 173.339C66.1782 173.339 66.8041 191.5 62.2453 198.609C62.2453 198.609 58.1722 201.085 56.1917 202.169L49.2787 375.667Z" fill="#263238"/>
<path d="M48.0642 367.848C41.3847 367.549 44.2434 367.54 37.5639 367.316C34.2942 367.213 12.8171 366.512 9.74361 366.942C9.67822 366.942 9.67822 367.063 9.74361 367.082C12.7891 367.661 34.2755 368.016 37.5452 368.016C44.2247 368.119 41.3754 368.016 48.0549 368.016C48.0689 368.007 48.0807 367.995 48.0891 367.981C48.0976 367.967 48.1024 367.951 48.1033 367.935C48.1043 367.918 48.1012 367.902 48.0944 367.886C48.0876 367.871 48.0772 367.858 48.0642 367.848Z" fill="#37474F"/>
<path d="M23.9434 209.072C23.7005 205.915 23.2427 202.776 22.9531 199.618C22.4256 193.292 22.9304 186.922 24.4478 180.757C24.4493 180.735 24.4432 180.714 24.4305 180.696C24.4179 180.679 24.3994 180.666 24.3784 180.66C24.3574 180.655 24.3351 180.657 24.3153 180.666C24.2956 180.675 24.2797 180.691 24.2703 180.71C23.1213 186.175 22.103 191.64 22.2805 197.255C22.458 202.869 23.3268 208.325 23.3174 213.902C23.3081 219.479 22.7569 225.178 22.2898 230.802C21.8227 236.426 21.3556 242.115 20.8792 247.776C19.0108 270.514 17.2265 293.253 15.4142 315.972C14.9097 322.325 14.48 328.668 13.9475 335.02C13.415 341.373 12.705 355.573 12.35 362.019C12.35 362.579 13.1534 362.551 13.2095 362.019C14.3866 350.612 15.3394 331.545 16.2736 320.12C17.2078 308.695 18.0766 297.494 18.9828 286.181C19.889 274.868 20.7671 263.555 21.6546 252.242C22.0905 246.58 22.5234 240.922 22.9531 235.267C23.3828 229.662 23.8873 224.001 24.0928 218.349C24.2149 215.256 24.165 212.16 23.9434 209.072Z" fill="#37474F"/>
<path d="M49.1666 187.212C49.1666 187.128 49.0731 186.997 48.9984 187.072C46.8116 190.657 43.7808 193.653 40.1703 195.797C35.9197 198.394 30.0903 199.74 26.8393 200.141C26.6245 200.141 26.6992 200.347 26.8954 200.356C30.3239 200.571 35.0883 199.693 40.3011 196.881C47.812 192.817 49.0451 188.025 49.1666 187.212Z" fill="#37474F"/>
<path d="M63.5345 198.077C59.579 199.514 55.7562 201.292 52.1093 203.392C51.9692 203.477 52.0626 203.701 52.2214 203.626C56.0609 201.982 59.9845 200.394 63.74 198.535C63.794 198.503 63.8344 198.453 63.8536 198.394C63.8727 198.334 63.8692 198.27 63.8436 198.213C63.818 198.156 63.7723 198.111 63.7152 198.086C63.6581 198.06 63.5937 198.057 63.5345 198.077Z" fill="#37474F"/>
<path d="M64.8704 173.676C64.8704 173.554 64.6275 173.526 64.6275 173.676C64.6072 177.634 64.3733 181.588 63.9268 185.521C63.7306 187.39 62.0584 197.442 58.658 196.732C58.0881 196.61 57.7985 196.096 57.7238 195.293C57.7443 194.246 57.9045 193.206 58.2002 192.201C58.5926 190.08 58.9102 187.96 59.1344 185.83C59.5503 181.862 59.5221 177.861 59.0503 173.9C59.0503 173.87 59.0385 173.842 59.0175 173.821C58.9965 173.8 58.968 173.788 58.9382 173.788C58.9085 173.788 58.88 173.8 58.859 173.821C58.8379 173.842 58.8261 173.87 58.8261 173.9C58.901 179.414 58.5261 184.926 57.7051 190.379C57.2567 193.004 55.8367 196.919 58.7794 197.348C61.7221 197.778 63.8054 191.127 64.1884 189.314C65.1447 184.159 65.3743 178.895 64.8704 173.676Z" fill="#37474F"/>
<path d="M58.7514 196.947C58.4401 197.684 58.181 198.443 57.976 199.217C57.7504 199.813 57.6425 200.448 57.6584 201.085C57.6584 201.207 57.8265 201.216 57.8919 201.141C58.2501 200.561 58.5209 199.932 58.6953 199.273C58.9569 198.572 59.2278 197.881 59.4707 197.171C59.4815 197.082 59.4608 196.992 59.4121 196.917C59.3635 196.842 59.29 196.786 59.2045 196.759C59.1189 196.732 59.0268 196.737 58.944 196.771C58.8612 196.805 58.7931 196.867 58.7514 196.947Z" fill="#37474F"/>
<path d="M15.0311 185.578C15.1713 185.746 74.9036 187.128 75.5015 186.512C76.3423 185.624 70.8959 122.762 61.0495 108.703C58.5926 105.19 49.6243 102.649 45.8035 106.106C34.752 116.083 32.3511 124.621 29.3523 131.581C27.1663 136.729 24.4665 145.538 22.0096 154.581C17.9458 169.463 14.5267 184.961 15.0311 185.578Z" fill="#EA2728"/>
<path d="M37.0221 114.457C24.672 129.404 10.575 156.589 12.4061 162.213C17.3666 177.506 22.2898 190.725 27.2504 198.992C29.5485 202.813 50.6706 190.949 48.5407 187.212C44.1686 179.645 35.7422 161.438 34.4343 158.859C33.6777 157.374 40.7495 132.88 45.0188 119.352C49.6617 104.658 42.9822 107.227 37.0221 114.457Z" fill="#F7A9A0"/>
<path d="M20.0291 193.752L46.0464 181.037C46.0464 181.037 35.7702 158.215 35.7702 155.749C35.7702 153.282 44.178 125.621 46.7377 116.699C49.2974 107.778 45.5699 102.201 34.4624 115.644C23.3548 129.087 11.9577 151.143 10.8553 156.449C9.75296 161.756 20.0291 193.752 20.0291 193.752Z" fill="#EA2728"/>
<path d="M42.6272 130.712C43.2998 128.9 44.0565 127.125 44.7852 125.322C44.8413 125.201 45.0655 125.322 45.0188 125.415C44.1593 127.816 43.3466 130.245 42.5432 132.665C43.1504 131.562 43.7669 130.46 44.4115 129.376C44.4227 129.357 44.4412 129.342 44.4631 129.336C44.485 129.33 44.5085 129.333 44.5283 129.344C44.5481 129.355 44.5627 129.373 44.5688 129.395C44.575 129.417 44.5722 129.441 44.561 129.461C43.8323 130.796 43.0663 132.114 42.2909 133.421C42.0947 134.01 36.4148 154.254 36.3588 155.029C36.3259 155.909 36.459 156.787 36.7511 157.617C37.2182 159.14 37.7507 160.653 38.2926 162.157C39.3762 165.175 40.5533 168.164 41.7958 171.126C43.2064 174.489 44.8132 177.824 46.4107 181.103C46.4107 181.103 45.4765 181.364 45.4111 181.383C45.3457 181.402 45.3364 181.383 45.3551 181.327C45.3738 181.271 45.9716 181.009 45.9903 181.009C44.3555 178.16 42.8047 175.404 41.4408 172.387C40.0769 169.369 38.8718 166.417 37.7788 163.362C37.2182 161.784 36.6764 160.205 36.1719 158.607C35.6137 157.117 35.4622 155.505 35.7329 153.936C36.0879 152.33 41.8892 132.581 42.6272 130.712Z" fill="#263238"/>
<path d="M19.6087 186.371C20.5148 185.869 21.4507 185.423 22.4113 185.035C23.2521 184.634 24.0928 184.232 24.9523 183.849C26.8207 183.008 28.6891 182.158 30.5574 181.327C32.4258 180.495 34.2942 179.664 36.1626 178.851C38.031 178.038 39.8994 177.179 41.7678 176.478C41.8332 176.478 41.8892 176.562 41.8238 176.6C40.0956 177.655 38.2459 178.543 36.4335 179.449C34.6212 180.355 32.8369 181.177 31.0152 181.99C29.1935 182.803 27.2784 183.606 25.41 184.372C24.4758 184.737 23.5417 185.073 22.6075 185.409C21.6426 185.829 20.65 186.181 19.6367 186.465C19.6243 186.469 19.611 186.467 19.5996 186.461C19.5882 186.455 19.5797 186.444 19.576 186.432C19.5723 186.42 19.5736 186.406 19.5798 186.395C19.5859 186.384 19.5963 186.375 19.6087 186.371Z" fill="#263238"/>
<path d="M56.9577 115.093C54.314 115.56 48.139 111.356 45.4391 107.423C45.2523 107.152 45.3737 104.116 45.3457 100.416C45.3457 98.1744 45.2336 95.6801 44.9907 93.4006L59.6202 95.3624C59.1077 98.2911 58.954 101.271 59.1624 104.237C59.2056 104.553 59.2712 104.865 59.3586 105.171C59.3586 105.171 59.3586 105.265 59.3586 105.321C59.8724 107.059 61.0869 114.345 56.9577 115.093Z" fill="#F7A9A0"/>
<path d="M59.3586 105.162C59.3558 105.212 59.3558 105.262 59.3586 105.311C58.8766 105.428 58.3862 105.506 57.8919 105.545C49.6056 106.236 46.4761 96.2778 45.7474 93.522L59.5548 95.3904C59.0423 98.3191 58.8886 101.299 59.097 104.265C59.1633 104.57 59.2508 104.869 59.3586 105.162Z" fill="#263238"/>
<path d="M42.702 74.1749C41.0671 79.2288 43.524 93.9611 47.0833 97.2961C52.2588 102.126 60.8347 102.714 64.9638 96.4741C68.9715 90.4298 65.4309 71.2508 61.4419 68.2427C55.5565 63.7493 45.1122 66.7013 42.702 74.1749Z" fill="#F7A9A0"/>
<path d="M57.4062 83.3674C57.4062 83.3674 57.3408 83.4235 57.3501 83.4702C57.5556 84.4044 57.6397 85.6095 56.7989 86.1046C56.7989 86.1046 56.7989 86.17 56.7989 86.1607C57.8826 85.8057 57.7705 84.2643 57.4062 83.3674Z" fill="#263238"/>
<path d="M56.3318 82.4985C54.725 82.6666 55.1828 85.8802 56.6775 85.7214C58.1722 85.5626 57.6864 82.349 56.3318 82.4985Z" fill="#263238"/>
<path d="M63.058 82.4612C63.058 82.4612 63.1421 82.4612 63.1421 82.5359C63.2542 83.5355 63.5531 84.6659 64.4967 84.8621V84.9274C63.3757 84.9274 63.002 83.4234 63.058 82.4612Z" fill="#263238"/>
<path d="M63.7961 81.2934C65.3748 80.9384 65.9634 84.096 64.4967 84.4603C63.03 84.8247 62.4695 81.583 63.7961 81.2934Z" fill="#263238"/>
<path d="M54.8558 81.2094C55.2586 81.0244 55.6515 80.8186 56.0329 80.5928C56.4811 80.4329 56.8648 80.1312 57.1259 79.7334C57.1808 79.5909 57.1877 79.4345 57.1456 79.2878C57.1034 79.1411 57.0145 79.0122 56.8924 78.9206C56.6251 78.7791 56.3249 78.7114 56.0228 78.7245C55.7206 78.7376 55.4274 78.8311 55.1734 78.9954C54.6053 79.2474 54.1498 79.6996 53.8936 80.2658C53.844 80.3995 53.8342 80.5446 53.8652 80.6836C53.8963 80.8227 53.967 80.9498 54.0688 81.0496C54.1705 81.1494 54.299 81.2176 54.4387 81.2459C54.5783 81.2743 54.7232 81.2616 54.8558 81.2094Z" fill="#263238"/>
<path d="M64.7303 79.8829C64.2858 79.8557 63.843 79.8058 63.4037 79.7334C62.9318 79.7422 62.4697 79.598 62.0865 79.3224C61.9837 79.212 61.9198 79.0709 61.9046 78.9208C61.8894 78.7707 61.9238 78.6197 62.0024 78.491C62.2005 78.2607 62.4564 78.0874 62.7438 77.9889C63.0311 77.8904 63.3395 77.8702 63.6372 77.9304C64.2591 77.9625 64.8475 78.2218 65.2908 78.6591C65.3844 78.7661 65.445 78.8979 65.4655 79.0386C65.486 79.1793 65.4654 79.323 65.4062 79.4522C65.347 79.5815 65.2517 79.6909 65.1318 79.7673C65.0119 79.8437 64.8724 79.8839 64.7303 79.8829Z" fill="#263238"/>
<path d="M61.3111 90.3926C60.965 90.999 60.4698 91.5071 59.8724 91.8686C59.5421 92.051 59.1643 92.1292 58.7888 92.0928C57.9573 91.9994 57.8546 91.2707 57.8546 90.6261C57.889 90.2821 57.9642 89.9434 58.0788 89.6172C59.0441 90.2183 60.1782 90.4903 61.3111 90.3926Z" fill="#263238"/>
<path d="M59.8911 91.8684C59.5608 92.0508 59.183 92.129 58.8074 92.0926C57.976 91.9991 57.8733 91.2705 57.8733 90.6259C58.3014 90.5677 58.7364 90.6598 59.1044 90.8863C59.4723 91.1128 59.7503 91.4599 59.8911 91.8684Z" fill="#FF9BBC"/>
<path d="M64.506 73.8479C64.2912 73.4368 63.0393 70.5315 62.4601 70.5595C61.7315 70.5595 61.3391 71.8207 60.0032 72.2971C58.1348 72.9791 54.6129 71.12 52.0252 72.0356C49.4375 72.9511 48.0549 75.5761 47.8961 80.3125C47.7373 85.0489 44.3088 89.1126 43.0289 86.1045C43.0289 85.9924 42.9075 85.7962 42.7954 85.5253C42.0667 81.0505 41.7024 75.8004 42.4777 73.3808C44.8786 65.9072 56.5934 63.9268 61.7502 67.7756C62.6401 68.5124 63.3508 69.4419 63.8282 70.494C64.3057 71.5461 64.5375 72.693 64.506 73.8479Z" fill="#263238"/>
<path d="M46.8778 86.6089C46.8778 86.6089 43.5334 81.8725 41.3847 83.0683C39.2361 84.2641 41.7584 91.1397 44.2901 92.0646C44.6067 92.2079 44.9491 92.2855 45.2965 92.2927C45.644 92.2999 45.9893 92.2365 46.3116 92.1064C46.6338 91.9763 46.9263 91.7821 47.1714 91.5357C47.4165 91.2892 47.609 90.9956 47.7373 90.6726L46.8778 86.6089Z" fill="#F7A9A0"/>
<path d="M42.1601 85.0208C42.1601 85.0208 42.1041 85.0768 42.1601 85.0861C43.9351 85.7961 44.8786 87.4403 45.5419 89.1405C45.4377 88.9633 45.2962 88.8108 45.1272 88.6936C44.9582 88.5763 44.7658 88.4972 44.5632 88.4617C44.3607 88.4262 44.1528 88.4351 43.9541 88.4877C43.7553 88.5404 43.5703 88.6357 43.4119 88.7669C43.4119 88.7669 43.4119 88.8696 43.4587 88.8603C43.7702 88.7595 44.1052 88.7575 44.418 88.8545C44.7307 88.9515 45.0058 89.1427 45.2056 89.4021C45.5373 89.8397 45.8193 90.3128 46.0464 90.8127C46.1305 90.9716 46.42 90.8875 46.3547 90.7007C46.364 88.3932 44.589 85.2356 42.1601 85.0208Z" fill="#263238"/>
<path d="M59.7323 106.591L58.2002 113.785L45.3084 104.443L42.7113 108.273C42.7113 108.273 55.1548 124.229 55.1267 123.444L58.7514 115.438L63.4224 120.174L61.909 109.31L59.7323 106.591Z" fill="#EBEBEB"/>
<path d="M62.8712 113.785C62.4788 111.673 62.5629 111.505 62.0771 109.413C62.0771 109.338 61.937 109.319 61.9277 109.413C61.7502 111.515 62.8618 117.606 63.0861 119.549C62.8432 119.353 58.8074 115.392 58.7701 115.457C58.1442 116.718 55.2201 122.613 55.0987 123.117C53.1276 120.586 45.6447 111.412 43.3933 109.058C43.381 109.045 43.3645 109.037 43.3467 109.035C43.329 109.033 43.3112 109.038 43.2965 109.048C43.2818 109.058 43.2713 109.073 43.2668 109.09C43.2622 109.107 43.264 109.126 43.2718 109.142C45.0748 111.86 55.0053 124.229 55.1267 124.182C56.5617 121.468 57.8102 118.659 58.8635 115.775C59.7323 116.615 63.8801 121.127 63.8614 120.81C63.6546 118.452 63.3241 116.107 62.8712 113.785Z" fill="#263238"/>
<path d="M356.74 315.374C357.029 308.003 356.929 300.622 356.441 293.262C355.349 278.081 353.031 263.013 349.51 248.206C347.576 239.863 345.203 231.671 342.718 223.478C342.643 223.235 342.251 223.3 342.316 223.562C349.986 252.428 356.273 282.21 355.844 312.217C355.722 320.624 354.751 328.864 353.975 337.206C353.975 337.431 354.321 337.515 354.377 337.29C355.803 330.068 356.594 322.735 356.74 315.374Z" fill="#EA2728"/>
<path d="M342.316 223.562C342.316 223.562 330.704 253.036 333.311 259.995C335.917 266.955 341.27 268.403 341.27 268.403C341.27 268.403 334.161 278.548 339.131 288.068C344.101 297.587 355.124 297.129 355.853 307.919C355.853 307.882 356.516 262.77 342.316 223.562Z" fill="#EA2728"/>
<path d="M354.592 289.254C354.61 289.203 354.61 289.147 354.592 289.095C353.064 268.975 349.285 249.089 343.325 229.811C343.325 229.746 343.213 229.765 343.232 229.811C345.53 238.437 347.563 247.103 349.332 255.81C347.769 254.335 345.861 253.275 343.783 252.727C343.783 252.727 343.727 252.727 343.783 252.783C345.967 253.587 347.929 254.897 349.51 256.604C349.846 258.314 350.182 260.023 350.444 261.733C347.856 258.837 344.25 257.398 340.654 256.025C340.598 256.025 340.579 256.09 340.654 256.109C344.39 257.632 348.127 259.603 350.677 262.835C351.562 267.718 352.34 272.625 353.013 277.558C351.137 275.594 348.733 274.215 346.091 273.588C346.007 273.588 345.96 273.69 346.044 273.709C348.772 274.5 351.212 276.064 353.069 278.212C353.303 279.95 353.527 281.678 353.732 283.415C352.278 282.19 350.638 281.203 348.874 280.491C348.828 280.491 348.8 280.547 348.874 280.566C350.673 281.343 352.321 282.43 353.742 283.78H353.798C353.994 285.433 354.19 287.077 354.349 288.731C351.735 285.571 348.341 283.15 344.502 281.706C344.428 281.706 344.39 281.79 344.502 281.818C348.291 283.494 351.62 286.058 354.209 289.291C354.236 289.328 354.274 289.355 354.318 289.369C354.362 289.382 354.408 289.381 354.452 289.366C354.704 291.907 354.928 294.439 355.115 296.989H355.171C354.984 294.458 354.807 291.842 354.592 289.254Z" fill="#263238"/>
<path d="M345.306 249.803C343.206 248.497 340.807 247.748 338.337 247.626C338.324 247.626 338.313 247.631 338.304 247.64C338.295 247.649 338.29 247.661 338.29 247.673C338.29 247.686 338.295 247.697 338.304 247.706C338.313 247.715 338.324 247.72 338.337 247.72C340.725 248.161 343.043 248.918 345.231 249.971C345.306 250.027 345.353 249.869 345.306 249.803Z" fill="#263238"/>
<path d="M346.67 281.015C345.055 280.092 343.28 279.487 341.438 279.23C341.432 279.23 341.426 279.231 341.42 279.234C341.415 279.236 341.41 279.24 341.405 279.244C341.401 279.248 341.398 279.253 341.395 279.259C341.393 279.265 341.392 279.271 341.392 279.277C341.392 279.283 341.393 279.289 341.395 279.295C341.398 279.3 341.401 279.306 341.405 279.31C341.41 279.314 341.415 279.318 341.42 279.32C341.426 279.322 341.432 279.324 341.438 279.324C343.243 279.687 344.988 280.3 346.623 281.145C346.679 281.183 346.745 281.061 346.67 281.015Z" fill="#263238"/>
<path d="M387.27 260.444C382.358 263.849 377.848 267.801 373.827 272.224C369.681 276.892 366.48 282.321 364.401 288.208C359.995 300.474 357.622 313.377 357.376 326.407C357.23 333.626 357.926 340.836 359.45 347.894C359.464 347.942 359.496 347.983 359.539 348.01C359.583 348.036 359.634 348.046 359.684 348.036C359.734 348.027 359.778 348 359.809 347.96C359.84 347.92 359.855 347.869 359.851 347.819C357.956 335.357 358.028 322.675 360.066 310.236C362.056 298.092 365.195 284.78 372.939 274.868C377.162 269.468 382.421 265.227 387.625 260.855C387.896 260.631 387.55 260.248 387.27 260.444Z" fill="#EA2728"/>
<path d="M359.085 317.635C361.881 313.112 365.168 308.911 368.885 305.108C374.696 299.297 379.591 295.177 380.338 291.328C381.085 287.479 374.527 284.658 374.527 284.658C374.527 284.658 382.562 286.106 384.804 282.734C387.046 279.361 388.064 259.818 388.064 259.818C388.064 259.818 373.434 270.262 366.577 284.892C359.72 299.521 359.085 317.635 359.085 317.635Z" fill="#EA2728"/>
<path d="M382.804 278.147C381.839 278.01 380.862 277.975 379.89 278.044C379.778 278.044 379.787 278.249 379.89 278.249C380.824 278.249 381.814 278.249 382.776 278.249C382.788 278.249 382.799 278.245 382.809 278.237C382.818 278.23 382.824 278.22 382.828 278.208C382.831 278.197 382.83 278.185 382.826 278.174C382.822 278.163 382.814 278.153 382.804 278.147Z" fill="#263238"/>
<path d="M372.276 297.102C370.729 297.143 369.201 297.46 367.764 298.036C367.764 298.036 367.764 298.11 367.764 298.101C369.249 297.746 370.753 297.606 372.257 297.354C372.398 297.307 372.398 297.102 372.276 297.102Z" fill="#263238"/>
<path d="M369.118 290.553C368.476 290.546 367.834 290.606 367.203 290.73C367.189 290.73 367.174 290.736 367.164 290.747C367.153 290.757 367.147 290.771 367.147 290.786C367.147 290.801 367.153 290.815 367.164 290.826C367.174 290.836 367.189 290.842 367.203 290.842C367.843 290.877 368.485 290.846 369.118 290.749C369.139 290.742 369.158 290.729 369.171 290.712C369.184 290.694 369.191 290.673 369.191 290.651C369.191 290.629 369.184 290.608 369.171 290.59C369.158 290.572 369.139 290.559 369.118 290.553Z" fill="#263238"/>
<path d="M316.215 281.183C320.974 282.793 325.534 284.94 329.808 287.582C334.246 290.414 338.092 294.082 341.13 298.381C347.54 307.294 352.447 317.197 355.657 327.696C357.441 333.509 358.545 339.509 358.945 345.577C358.936 345.616 358.914 345.65 358.883 345.675C358.851 345.7 358.812 345.714 358.772 345.714C358.732 345.714 358.693 345.7 358.662 345.675C358.631 345.65 358.609 345.616 358.599 345.577C357.253 335.055 354.265 324.81 349.743 315.215C345.315 305.808 339.71 295.794 331.153 289.562C326.482 286.171 321.25 283.957 316.019 281.603C315.748 281.472 315.944 281.089 316.215 281.183Z" fill="#EA2728"/>
<path d="M352.238 320.952C348.932 317.937 345.304 315.296 341.42 313.076C335.375 309.723 330.462 307.471 328.957 304.575C327.453 301.679 332.124 297.84 332.124 297.84C332.124 297.84 325.959 300.857 323.399 298.643C320.839 296.429 315.458 280.893 315.458 280.893C315.458 280.893 329.705 285.966 338.608 296.233C347.511 306.5 352.238 320.952 352.238 320.952Z" fill="#EA2728"/>
<path d="M351.5 317.738C344.372 304.36 334.862 292.262 321.83 284.275C325.23 286.466 328.42 288.968 331.358 291.748C328.707 291.605 326.065 292.162 323.698 293.365C323.651 293.365 323.698 293.458 323.745 293.439C326.261 292.498 328.934 292.047 331.62 292.113C331.65 292.122 331.683 292.122 331.713 292.113L333.087 293.449C331.707 293.512 330.335 293.693 328.986 293.991C328.986 293.991 328.986 294.056 328.986 294.047C330.408 293.779 331.854 293.66 333.301 293.692C335.688 296.105 337.934 298.653 340.028 301.324C339.068 301.19 338.091 301.26 337.16 301.529C337.145 301.529 337.131 301.535 337.12 301.546C337.11 301.556 337.104 301.571 337.104 301.586C337.104 301.6 337.11 301.615 337.12 301.625C337.131 301.636 337.145 301.642 337.16 301.642C338.174 301.523 339.197 301.508 340.215 301.595C340.607 302.09 340.999 302.585 341.382 303.09C338.472 302.911 335.553 303.194 332.732 303.93C332.732 303.93 332.732 304.005 332.732 303.996C335.656 303.426 338.642 303.231 341.616 303.417C341.98 303.902 342.326 304.351 342.681 304.883C340.946 304.841 339.214 305.039 337.533 305.472C337.468 305.472 337.487 305.593 337.533 305.575C339.282 305.2 341.073 305.062 342.858 305.163C344.4 307.275 345.866 309.433 347.277 311.619C346.524 311.48 345.748 311.525 345.016 311.75C345.016 311.75 345.016 311.824 345.016 311.815C345.834 311.752 346.656 311.793 347.464 311.936C348.734 313.908 349.958 315.907 351.135 317.906C351.322 318.046 351.593 317.915 351.5 317.738Z" fill="#263238"/>
<path d="M340.411 306.64C339.012 306.549 337.608 306.72 336.272 307.144C336.272 307.144 336.272 307.219 336.272 307.21C337.635 306.981 339.011 306.84 340.392 306.789C340.495 306.789 340.513 306.649 340.411 306.64Z" fill="#263238"/>
<path d="M327.986 290.338C327.361 290.295 326.733 290.333 326.118 290.45C326.043 290.45 326.071 290.571 326.118 290.562C326.743 290.497 327.36 290.562 327.986 290.506C328.008 290.506 328.03 290.497 328.045 290.481C328.061 290.466 328.07 290.444 328.07 290.422C328.07 290.4 328.061 290.378 328.045 290.362C328.03 290.347 328.008 290.338 327.986 290.338Z" fill="#263238"/>
<path d="M370.623 365.185H338.458L343.036 331.592L344.213 322.979H364.859L366.036 331.592L370.623 365.185Z" fill="#455A64"/>
<path d="M366.036 331.592H343.036L344.213 322.979H364.859L366.036 331.592Z" fill="#263238"/>
<path d="M367.811 319.989H341.261V327.285H367.811V319.989Z" fill="#455A64"/>
</svg>
