<svg width="30" height="30" viewBox="0 0 30 30" fill="none" xmlns="http://www.w3.org/2000/svg">
<g clip-path="url(#clip0_1071_364)">
<path d="M15 7.11084C10.643 7.11084 7.11098 10.6429 7.11098 14.9976C7.11098 19.3546 10.643 22.8866 15 22.8866C19.3571 22.8866 22.8891 19.3546 22.8891 14.9976C22.8891 10.6429 19.3571 7.11084 15 7.11084ZM13.3032 5.67412H16.6993C16.8563 5.67412 17.0016 5.59678 17.093 5.46787C17.1821 5.34131 17.2032 5.1749 17.1493 5.02725L15.45 0.428809C15.3797 0.238965 15.2016 0.114746 15 0.114746C14.7985 0.114746 14.6203 0.241309 14.55 0.428809L12.8508 5.02959C12.7969 5.17725 12.818 5.34131 12.9071 5.47021C12.9985 5.59912 13.1461 5.67412 13.3032 5.67412ZM22.7954 9.60693C22.8844 9.69834 23.0086 9.74756 23.1329 9.74756C23.161 9.74756 23.1891 9.74521 23.2172 9.74053C23.3719 9.7124 23.5008 9.61162 23.5688 9.46865L25.6219 5.01318C25.7063 4.83037 25.6664 4.61709 25.5258 4.47412C25.3829 4.33115 25.1672 4.29365 24.9844 4.37568L20.5313 6.43115C20.3883 6.49678 20.2875 6.62803 20.2594 6.78271C20.2313 6.9374 20.2829 7.09443 20.3907 7.20693L22.7954 9.60693ZM29.5735 14.5499L24.9704 12.853C24.8227 12.7991 24.6586 12.8202 24.5297 12.9093C24.4008 12.9983 24.3258 13.1437 24.3258 13.3007L24.3282 16.6968C24.3282 16.8538 24.4055 17.0015 24.5344 17.0905C24.6164 17.1444 24.7125 17.1749 24.8086 17.1749C24.8649 17.1749 24.9211 17.1655 24.975 17.1444L29.5782 15.4476C29.7657 15.3796 29.8922 15.1991 29.8922 14.9952C29.8875 14.7983 29.7633 14.6202 29.5735 14.5499ZM23.5688 20.5312C23.5364 20.4609 23.4875 20.3995 23.4263 20.3521C23.3651 20.3048 23.2934 20.2729 23.2172 20.2593C23.0625 20.2335 22.9032 20.2827 22.7954 20.3929L20.393 22.7952C20.2829 22.9054 20.2313 23.0647 20.2594 23.2194C20.2875 23.3718 20.3883 23.5054 20.5313 23.571L24.9868 25.6241C25.05 25.6546 25.118 25.6663 25.1883 25.6663C25.3125 25.6663 25.4344 25.6171 25.5258 25.5257C25.6688 25.3827 25.7063 25.1694 25.6219 24.9866L23.5688 20.5312ZM16.6969 24.3233L13.3008 24.3257C13.1438 24.3257 12.9985 24.403 12.9094 24.5319C12.8204 24.6608 12.7993 24.8249 12.8508 24.9702L14.55 29.5733C14.6203 29.7608 14.7985 29.8874 15 29.8874C15.2016 29.8874 15.3797 29.7608 15.45 29.5733L17.1493 24.9702C17.2032 24.8226 17.1821 24.6585 17.093 24.5296C17.0016 24.4007 16.8563 24.3233 16.6969 24.3233ZM7.20473 20.3929C7.09457 20.2827 6.93754 20.2335 6.78285 20.2593C6.62816 20.2874 6.49691 20.3882 6.43129 20.5312L4.37816 24.9866C4.29379 25.1694 4.33363 25.3851 4.4766 25.5257C4.54576 25.595 4.63457 25.6415 4.731 25.6586C4.82742 25.6758 4.9268 25.663 5.01566 25.6218L9.47113 23.5663C9.54141 23.5339 9.60283 23.4851 9.65016 23.4239C9.69749 23.3626 9.72935 23.2909 9.74301 23.2147C9.77113 23.0601 9.71957 22.903 9.60941 22.7929L7.20473 20.3929ZM5.19613 17.1772C5.29223 17.1772 5.38832 17.1468 5.47035 17.0905C5.59926 17.0015 5.6766 16.8538 5.6766 16.6968L5.67426 13.3007C5.67427 13.2235 5.65565 13.1475 5.61997 13.079C5.58429 13.0106 5.53262 12.9518 5.46934 12.9076C5.40606 12.8634 5.33305 12.8352 5.25651 12.8253C5.17997 12.8154 5.10217 12.8241 5.02973 12.8507L0.4266 14.5499C0.334434 14.5837 0.254868 14.645 0.198657 14.7255C0.142447 14.8059 0.112305 14.9017 0.112305 14.9999C0.112305 15.0981 0.142447 15.1939 0.198657 15.2743C0.254868 15.3548 0.334434 15.4161 0.4266 15.4499L5.03207 17.1468C5.08598 17.1679 5.13988 17.1772 5.19613 17.1772ZM6.43363 9.46865C6.46609 9.53888 6.51502 9.60023 6.57628 9.64749C6.63753 9.69475 6.7093 9.72652 6.78546 9.7401C6.86163 9.75368 6.93995 9.74866 7.01376 9.72547C7.08757 9.70229 7.15469 9.66162 7.20941 9.60693L9.60941 7.20459C9.71957 7.09209 9.76879 6.93506 9.74066 6.78037C9.71254 6.62803 9.61176 6.49678 9.46879 6.43115L5.01097 4.37803C4.82816 4.29365 4.61488 4.3335 4.47191 4.47647C4.32894 4.61943 4.29144 4.83272 4.37582 5.01553L6.43363 9.46865Z" fill="#FCC21B"/>
</g>
<defs>
<clipPath id="clip0_1071_364">
<rect width="30" height="30" fill="white"/>
</clipPath>
</defs>
</svg>
