<svg width="40" height="40" viewBox="0 0 40 40" fill="none" xmlns="http://www.w3.org/2000/svg">
<path d="M0 20C0 10.5719 0 5.85786 2.92893 2.92893C5.85786 0 10.5719 0 20 0C29.4281 0 34.1421 0 37.0711 2.92893C40 5.85786 40 10.5719 40 20C40 29.4281 40 34.1421 37.0711 37.0711C34.1421 40 29.4281 40 20 40C10.5719 40 5.85786 40 2.92893 37.0711C0 34.1421 0 29.4281 0 20Z" fill="white"/>
<path d="M23.9999 26C24.5522 26 25.01 26.4521 24.9003 26.9934C24.7064 27.9494 24.2354 28.8355 23.5354 29.5355C22.5978 30.4732 21.326 31 19.9999 31C18.6738 31 17.4021 30.4732 16.4644 29.5355C15.7644 28.8355 15.2934 27.9494 15.0996 26.9934C14.9898 26.4521 15.4476 26 15.9999 26H23.9999Z" fill="black"/>
<path d="M26.1022 17.7765C25.5687 17.9194 25.242 18.4775 25.5125 18.959C25.7972 19.4658 26.191 19.9081 26.6701 20.2514C27.4223 20.7904 28.3381 21.052 29.2616 20.9914C30.185 20.9309 31.0589 20.5521 31.7343 19.9195C32.4098 19.2869 32.8449 18.4396 32.9657 17.5221C33.0865 16.6046 32.8855 15.6736 32.3968 14.8877C31.9081 14.1019 31.162 13.5098 30.2857 13.2123C29.4094 12.9148 28.4571 12.9304 27.591 13.2564C27.0394 13.464 26.5446 13.7893 26.1384 14.2051C25.7525 14.6002 25.9236 15.2239 26.4019 15.5L26.9092 15.7929C27.6807 16.2384 27.5286 17.3943 26.668 17.6249L26.1022 17.7765Z" fill="black"/>
<path d="M13.8979 17.7765C14.4314 17.9194 14.7581 18.4775 14.4876 18.959C14.2029 19.4658 13.8091 19.9081 13.3301 20.2514C12.5779 20.7904 11.662 21.052 10.7386 20.9914C9.81508 20.9309 8.94119 20.5521 8.26576 19.9195C7.59033 19.2869 7.15514 18.4396 7.03435 17.5221C6.91356 16.6046 7.11463 15.6736 7.60332 14.8877C8.092 14.1019 8.83806 13.5098 9.71437 13.2123C10.5907 12.9148 11.5431 12.9304 12.4092 13.2564C12.9607 13.464 13.4556 13.7893 13.8618 14.2051C14.2477 14.6002 14.0765 15.2239 13.5982 15.5L13.0909 15.7929C12.3194 16.2384 12.4716 17.3943 13.3321 17.6249L13.8979 17.7765Z" fill="black"/>
</svg>
